<?xml version="1.0" encoding="UTF-8" standalone="no"?>
<!DOCTYPE svg PUBLIC "-//W3C//DTD SVG 1.1//EN"
 "http://www.w3.org/Graphics/SVG/1.1/DTD/svg11.dtd">
<!-- Generated by graphviz version 2.38.0 (20140413.2041)
 -->
<!-- Title: %3 Pages: 1 -->
<svg width="447pt" height="220pt"
 viewBox="0.00 0.00 447.00 220.00" xmlns="http://www.w3.org/2000/svg" xmlns:xlink="http://www.w3.org/1999/xlink">
<g id="graph0" class="graph" transform="scale(1 1) rotate(0) translate(4 216)">
<title>%3</title>
<g id="clust1" class="cluster"><title>cluster_t1</title>
<polygon fill="none" stroke="red" points="331,-8 331,-204 431,-204 431,-8 331,-8"/>
</g>
<g id="clust2" class="cluster"><title>cluster_t2</title>
<polygon fill="none" stroke="blue" points="8,-8 8,-204 108,-204 108,-8 8,-8"/>
</g>
<g id="clust3" class="cluster"><title>cluster_t3</title>
<polygon fill="none" stroke="green" points="145,-8 145,-132 294,-132 294,-8 145,-8"/>
</g>
<!-- 1 -->
<g id="node1" class="node"><title>1</title>
<ellipse fill="none" stroke="black" cx="371" cy="-106" rx="31.6951" ry="18"/>
<text text-anchor="middle" x="371" y="-102.3" font-family="Times,serif" font-size="14.00">s_234</text>
</g>
<!-- 0 -->
<g id="node2" class="node"><title>0</title>
<ellipse fill="none" stroke="black" cx="369" cy="-34" rx="28.6953" ry="18"/>
<text text-anchor="middle" x="369" y="-30.3" font-family="Times,serif" font-size="14.00">⟨1|6⟩</text>
</g>
<!-- 1&#45;&#45;0 -->
<g id="edge17" class="edge"><title>1&#45;&#45;0</title>
<path fill="none" stroke="black" d="M370.506,-87.6966C370.196,-76.8463 369.798,-62.9167 369.489,-52.1043"/>
</g>
<!-- 3 -->
<g id="node3" class="node"><title>3</title>
<ellipse fill="none" stroke="black" cx="257" cy="-34" rx="28.6953" ry="18"/>
<text text-anchor="middle" x="257" y="-30.3" font-family="Times,serif" font-size="14.00">⟨2|3⟩</text>
</g>
<!-- 1&#45;&#45;3 -->
<g id="edge1" class="edge"><title>1&#45;&#45;3</title>
<path fill="none" stroke="black" d="M350.091,-92.1609C329.264,-79.3728 297.518,-59.8795 277.012,-47.2882"/>
</g>
<!-- 9 -->
<g id="node9" class="node"><title>9</title>
<ellipse fill="none" stroke="black" cx="69" cy="-34" rx="28.6953" ry="18"/>
<text text-anchor="middle" x="69" y="-30.3" font-family="Times,serif" font-size="14.00">⟨3|4⟩</text>
</g>
<!-- 1&#45;&#45;9 -->
<g id="edge7" class="edge"><title>1&#45;&#45;9</title>
<path fill="none" stroke="black" d="M342.228,-98.2759C328.792,-95.1421 312.58,-91.3693 298,-88 228.249,-71.8815 210.726,-68.2254 141,-52 125.864,-48.4777 108.951,-44.4872 95.3222,-41.258"/>
</g>
<!-- 2 -->
<g id="node4" class="node"><title>2</title>
<ellipse fill="none" stroke="black" cx="183" cy="-106" rx="27.0966" ry="18"/>
<text text-anchor="middle" x="183" y="-102.3" font-family="Times,serif" font-size="14.00">[5|6]</text>
</g>
<!-- 2&#45;&#45;1 -->
<g id="edge3" class="edge"><title>2&#45;&#45;1</title>
<path fill="none" stroke="black" d="M196.096,-122.029C204.453,-130.941 216.114,-141.181 229,-146 265.217,-159.544 279.229,-157.957 316,-146 330.821,-141.18 344.981,-130.696 355.221,-121.671"/>
</g>
<!-- 2&#45;&#45;3 -->
<g id="edge14" class="edge"><title>2&#45;&#45;3</title>
<path fill="none" stroke="black" d="M197.975,-90.8345C210.729,-78.7697 228.973,-61.5119 241.793,-49.3847"/>
</g>
<!-- 6 -->
<g id="node8" class="node"><title>6</title>
<ellipse fill="none" stroke="black" cx="182" cy="-34" rx="28.6953" ry="18"/>
<text text-anchor="middle" x="182" y="-30.3" font-family="Times,serif" font-size="14.00">⟨1|2⟩</text>
</g>
<!-- 2&#45;&#45;6 -->
<g id="edge18" class="edge"><title>2&#45;&#45;6</title>
<path fill="none" stroke="black" d="M182.753,-87.6966C182.598,-76.8463 182.399,-62.9167 182.244,-52.1043"/>
</g>
<!-- 2&#45;&#45;9 -->
<g id="edge21" class="edge"><title>2&#45;&#45;9</title>
<path fill="none" stroke="black" d="M163.661,-93.1255C142.825,-80.3313 109.836,-60.075 88.8166,-47.1681"/>
</g>
<!-- 5 -->
<g id="node5" class="node"><title>5</title>
<ellipse fill="none" stroke="black" cx="368" cy="-178" rx="27.0966" ry="18"/>
<text text-anchor="middle" x="368" y="-174.3" font-family="Times,serif" font-size="14.00">[3|4]</text>
</g>
<!-- 5&#45;&#45;1 -->
<g id="edge6" class="edge"><title>5&#45;&#45;1</title>
<path fill="none" stroke="black" d="M368.742,-159.697C369.207,-148.846 369.804,-134.917 370.267,-124.104"/>
</g>
<!-- 5&#45;&#45;0 -->
<g id="edge13" class="edge"><title>5&#45;&#45;0</title>
<path fill="none" stroke="black" d="M386.04,-164.213C395.721,-156.201 406.721,-144.951 412,-132 419.382,-113.891 418.536,-106.431 412,-88 406.614,-72.8123 394.815,-58.8035 384.937,-49.0075"/>
</g>
<!-- 4 -->
<g id="node6" class="node"><title>4</title>
<ellipse fill="none" stroke="black" cx="68" cy="-106" rx="31.6951" ry="18"/>
<text text-anchor="middle" x="68" y="-102.3" font-family="Times,serif" font-size="14.00">s_345</text>
</g>
<!-- 5&#45;&#45;4 -->
<g id="edge10" class="edge"><title>5&#45;&#45;4</title>
<path fill="none" stroke="black" d="M341.52,-172.937C298.891,-166.131 212.58,-151.259 141,-132 125.088,-127.719 107.615,-121.781 93.7534,-116.766"/>
</g>
<!-- 5&#45;&#45;6 -->
<g id="edge8" class="edge"><title>5&#45;&#45;6</title>
<path fill="none" stroke="black" d="M355.162,-161.806C333.992,-136.772 293.891,-89.4572 292,-88 288.222,-85.0888 235.374,-60.0691 204.329,-45.4702"/>
</g>
<!-- 4&#45;&#45;0 -->
<g id="edge11" class="edge"><title>4&#45;&#45;0</title>
<path fill="none" stroke="black" d="M96.7721,-98.2759C110.208,-95.1421 126.42,-91.3693 141,-88 210.751,-71.8815 228.3,-68.3351 298,-52 312.809,-48.5294 329.335,-44.5772 342.714,-41.3574"/>
</g>
<!-- 4&#45;&#45;6 -->
<g id="edge12" class="edge"><title>4&#45;&#45;6</title>
<path fill="none" stroke="black" d="M88.9094,-92.1609C109.736,-79.3728 141.482,-59.8795 161.988,-47.2882"/>
</g>
<!-- 4&#45;&#45;9 -->
<g id="edge22" class="edge"><title>4&#45;&#45;9</title>
<path fill="none" stroke="black" d="M68.2472,-87.6966C68.4022,-76.8463 68.6012,-62.9167 68.7557,-52.1043"/>
</g>
<!-- 7 -->
<g id="node7" class="node"><title>7</title>
<ellipse fill="none" stroke="black" cx="256" cy="-106" rx="27.0966" ry="18"/>
<text text-anchor="middle" x="256" y="-102.3" font-family="Times,serif" font-size="14.00">[4|5]</text>
</g>
<!-- 7&#45;&#45;0 -->
<g id="edge2" class="edge"><title>7&#45;&#45;0</title>
<path fill="none" stroke="black" d="M275.169,-93.1255C295.822,-80.3313 328.522,-60.075 349.357,-47.1681"/>
</g>
<!-- 7&#45;&#45;3 -->
<g id="edge20" class="edge"><title>7&#45;&#45;3</title>
<path fill="none" stroke="black" d="M256.247,-87.6966C256.402,-76.8463 256.601,-62.9167 256.756,-52.1043"/>
</g>
<!-- 7&#45;&#45;4 -->
<g id="edge16" class="edge"><title>7&#45;&#45;4</title>
<path fill="none" stroke="black" d="M242.904,-122.029C234.547,-130.941 222.886,-141.181 210,-146 167.778,-161.79 116.494,-136.962 88.565,-119.903"/>
</g>
<!-- 7&#45;&#45;6 -->
<g id="edge9" class="edge"><title>7&#45;&#45;6</title>
<path fill="none" stroke="black" d="M241.025,-90.8345C228.271,-78.7697 210.027,-61.5119 197.207,-49.3847"/>
</g>
<!-- 8 -->
<g id="node10" class="node"><title>8</title>
<ellipse fill="none" stroke="black" cx="70" cy="-178" rx="27.0966" ry="18"/>
<text text-anchor="middle" x="70" y="-174.3" font-family="Times,serif" font-size="14.00">[1|6]</text>
</g>
<!-- 8&#45;&#45;1 -->
<g id="edge5" class="edge"><title>8&#45;&#45;1</title>
<path fill="none" stroke="black" d="M96.2504,-173.004C138.945,-166.241 225.913,-151.362 298,-132 313.913,-127.726 331.387,-121.787 345.248,-116.771"/>
</g>
<!-- 8&#45;&#45;3 -->
<g id="edge15" class="edge"><title>8&#45;&#45;3</title>
<path fill="none" stroke="black" d="M83.0065,-162.006C90.592,-153.258 100.342,-142.008 109,-132 125.906,-112.459 126.488,-103.714 147,-88 150.786,-85.0994 203.63,-60.0754 234.673,-45.473"/>
</g>
<!-- 8&#45;&#45;4 -->
<g id="edge4" class="edge"><title>8&#45;&#45;4</title>
<path fill="none" stroke="black" d="M69.5056,-159.697C69.1956,-148.846 68.7976,-134.917 68.4887,-124.104"/>
</g>
<!-- 8&#45;&#45;9 -->
<g id="edge19" class="edge"><title>8&#45;&#45;9</title>
<path fill="none" stroke="black" d="M52.3607,-164.128C42.8975,-156.088 32.1475,-144.838 27,-132 19.7222,-113.849 20.5696,-106.468 27,-88 32.1731,-73.1429 43.438,-59.318 53.0001,-49.5154"/>
</g>
</g>
</svg>
