<?xml version="1.0" encoding="UTF-8" standalone="no"?>
<!DOCTYPE svg PUBLIC "-//W3C//DTD SVG 1.1//EN"
 "http://www.w3.org/Graphics/SVG/1.1/DTD/svg11.dtd">
<!-- Generated by graphviz version 2.38.0 (20140413.2041)
 -->
<!-- Title: %3 Pages: 1 -->
<svg width="476pt" height="188pt"
 viewBox="0.00 0.00 475.94 188.00" xmlns="http://www.w3.org/2000/svg" xmlns:xlink="http://www.w3.org/1999/xlink">
<g id="graph0" class="graph" transform="scale(1 1) rotate(0) translate(4 184)">
<title>%3</title>
<!-- 1 -->
<g id="node1" class="node"><title>1</title>
<ellipse fill="none" stroke="black" cx="312.95" cy="-90" rx="31.6951" ry="18"/>
<text text-anchor="middle" x="312.95" y="-86.3" font-family="Times,serif" font-size="14.00">s_234</text>
</g>
<!-- 0 -->
<g id="node2" class="node"><title>0</title>
<ellipse fill="none" stroke="black" cx="162.95" cy="-18" rx="28.6953" ry="18"/>
<text text-anchor="middle" x="162.95" y="-14.3" font-family="Times,serif" font-size="14.00">⟨1|6⟩</text>
</g>
<!-- 1&#45;&#45;0 -->
<g id="edge17" class="edge"><title>1&#45;&#45;0</title>
<path fill="none" stroke="black" d="M289.182,-77.9083C260.599,-64.5697 213,-42.3568 185.14,-29.3552"/>
</g>
<!-- 3 -->
<g id="node3" class="node"><title>3</title>
<ellipse fill="none" stroke="black" cx="391.95" cy="-18" rx="28.6953" ry="18"/>
<text text-anchor="middle" x="391.95" y="-14.3" font-family="Times,serif" font-size="14.00">⟨2|3⟩</text>
</g>
<!-- 1&#45;&#45;3 -->
<g id="edge1" class="edge"><title>1&#45;&#45;3</title>
<path fill="none" stroke="black" d="M329.319,-74.496C343.058,-62.322 362.562,-45.0402 376.141,-33.0078"/>
</g>
<!-- 9 -->
<g id="node9" class="node"><title>9</title>
<ellipse fill="none" stroke="black" cx="282.95" cy="-18" rx="28.6953" ry="18"/>
<text text-anchor="middle" x="282.95" y="-14.3" font-family="Times,serif" font-size="14.00">⟨3|4⟩</text>
</g>
<!-- 1&#45;&#45;9 -->
<g id="edge7" class="edge"><title>1&#45;&#45;9</title>
<path fill="none" stroke="black" d="M305.84,-72.411C301.058,-61.2524 294.78,-46.6036 290.009,-35.4699"/>
</g>
<!-- 2 -->
<g id="node4" class="node"><title>2</title>
<ellipse fill="none" stroke="black" cx="282.95" cy="-162" rx="27.0966" ry="18"/>
<text text-anchor="middle" x="282.95" y="-158.3" font-family="Times,serif" font-size="14.00">[5|6]</text>
</g>
<!-- 2&#45;&#45;1 -->
<g id="edge3" class="edge"><title>2&#45;&#45;1</title>
<path fill="none" stroke="black" d="M290.06,-144.411C294.773,-133.414 300.938,-119.027 305.683,-107.956"/>
</g>
<!-- 2&#45;&#45;3 -->
<g id="edge14" class="edge"><title>2&#45;&#45;3</title>
<path fill="none" stroke="black" d="M308.849,-155.564C333.495,-148.899 369.351,-134.991 386.95,-108 401.066,-86.351 398.893,-55.073 395.676,-35.9416"/>
</g>
<!-- 6 -->
<g id="node8" class="node"><title>6</title>
<ellipse fill="none" stroke="black" cx="52.95" cy="-18" rx="28.6953" ry="18"/>
<text text-anchor="middle" x="52.95" y="-14.3" font-family="Times,serif" font-size="14.00">⟨1|2⟩</text>
</g>
<!-- 2&#45;&#45;6 -->
<g id="edge18" class="edge"><title>2&#45;&#45;6</title>
<path fill="none" stroke="black" d="M258.074,-153.8C230.779,-145.264 186.283,-129.446 151.95,-108 117.843,-86.6947 84.3646,-53.2355 66.417,-33.9867"/>
</g>
<!-- 2&#45;&#45;9 -->
<g id="edge21" class="edge"><title>2&#45;&#45;9</title>
<path fill="none" stroke="black" d="M278.486,-143.953C276.015,-133.63 273.198,-120.153 271.95,-108 270.316,-92.0837 270.316,-87.9163 271.95,-72 273.198,-59.8472 276.015,-46.3698 278.486,-36.0469"/>
</g>
<!-- 5 -->
<g id="node5" class="node"><title>5</title>
<ellipse fill="none" stroke="black" cx="72.95" cy="-162" rx="27.0966" ry="18"/>
<text text-anchor="middle" x="72.95" y="-158.3" font-family="Times,serif" font-size="14.00">[3|4]</text>
</g>
<!-- 5&#45;&#45;1 -->
<g id="edge6" class="edge"><title>5&#45;&#45;1</title>
<path fill="none" stroke="black" d="M97.0995,-153.242C106.411,-150.292 117.159,-146.936 126.95,-144 182.752,-127.269 248.35,-108.872 284.835,-98.7526"/>
</g>
<!-- 5&#45;&#45;0 -->
<g id="edge13" class="edge"><title>5&#45;&#45;0</title>
<path fill="none" stroke="black" d="M83.0992,-144.987C100.384,-117.715 135.346,-62.5529 152.7,-35.1725"/>
</g>
<!-- 4 -->
<g id="node6" class="node"><title>4</title>
<ellipse fill="none" stroke="black" cx="192.95" cy="-90" rx="31.6951" ry="18"/>
<text text-anchor="middle" x="192.95" y="-86.3" font-family="Times,serif" font-size="14.00">s_345</text>
</g>
<!-- 5&#45;&#45;4 -->
<g id="edge10" class="edge"><title>5&#45;&#45;4</title>
<path fill="none" stroke="black" d="M92.7656,-149.441C114.467,-136.782 149.149,-116.551 171.483,-103.522"/>
</g>
<!-- 5&#45;&#45;6 -->
<g id="edge8" class="edge"><title>5&#45;&#45;6</title>
<path fill="none" stroke="black" d="M51.3871,-150.929C35.3099,-142.113 14.5412,-127.636 4.95003,-108 -2.07228,-93.6234 -0.805473,-86.929 4.95003,-72 11.0232,-56.247 24.1905,-42.2735 35.2004,-32.6348"/>
</g>
<!-- 4&#45;&#45;0 -->
<g id="edge11" class="edge"><title>4&#45;&#45;0</title>
<path fill="none" stroke="black" d="M185.84,-72.411C181.058,-61.2524 174.78,-46.6036 170.009,-35.4699"/>
</g>
<!-- 4&#45;&#45;6 -->
<g id="edge12" class="edge"><title>4&#45;&#45;6</title>
<path fill="none" stroke="black" d="M169.832,-77.4409C143.426,-64.2381 100.548,-42.799 74.7194,-29.8847"/>
</g>
<!-- 4&#45;&#45;9 -->
<g id="edge22" class="edge"><title>4&#45;&#45;9</title>
<path fill="none" stroke="black" d="M211.163,-74.8345C227.086,-62.4501 250.044,-44.5939 265.68,-32.432"/>
</g>
<!-- 7 -->
<g id="node7" class="node"><title>7</title>
<ellipse fill="none" stroke="black" cx="162.95" cy="-162" rx="27.0966" ry="18"/>
<text text-anchor="middle" x="162.95" y="-158.3" font-family="Times,serif" font-size="14.00">[4|5]</text>
</g>
<!-- 7&#45;&#45;0 -->
<g id="edge2" class="edge"><title>7&#45;&#45;0</title>
<path fill="none" stroke="black" d="M158.486,-143.953C156.015,-133.63 153.198,-120.153 151.95,-108 150.316,-92.0837 150.316,-87.9163 151.95,-72 153.198,-59.8472 156.015,-46.3698 158.486,-36.0469"/>
</g>
<!-- 7&#45;&#45;3 -->
<g id="edge20" class="edge"><title>7&#45;&#45;3</title>
<path fill="none" stroke="black" d="M188.543,-155.201C237.647,-143.889 341.359,-119.021 353.95,-108 375.442,-89.1892 385.147,-56.1143 389.242,-36.0151"/>
</g>
<!-- 7&#45;&#45;4 -->
<g id="edge16" class="edge"><title>7&#45;&#45;4</title>
<path fill="none" stroke="black" d="M170.06,-144.411C174.773,-133.414 180.938,-119.027 185.683,-107.956"/>
</g>
<!-- 7&#45;&#45;6 -->
<g id="edge9" class="edge"><title>7&#45;&#45;6</title>
<path fill="none" stroke="black" d="M140.34,-151.669C121.86,-142.947 96.3559,-128.228 80.95,-108 64.5599,-86.4801 57.6383,-55.1628 54.8066,-35.9885"/>
</g>
<!-- 8 -->
<g id="node10" class="node"><title>8</title>
<ellipse fill="none" stroke="black" cx="416.95" cy="-162" rx="27.0966" ry="18"/>
<text text-anchor="middle" x="416.95" y="-158.3" font-family="Times,serif" font-size="14.00">[1|6]</text>
</g>
<!-- 8&#45;&#45;1 -->
<g id="edge5" class="edge"><title>8&#45;&#45;1</title>
<path fill="none" stroke="black" d="M398.357,-148.485C379.894,-136.059 351.688,-117.074 332.799,-104.36"/>
</g>
<!-- 8&#45;&#45;3 -->
<g id="edge15" class="edge"><title>8&#45;&#45;3</title>
<path fill="none" stroke="black" d="M433.511,-147.639C444.16,-137.922 457.068,-123.751 462.95,-108 468.548,-93.0111 470.122,-86.3027 462.95,-72 452.953,-52.0621 431.503,-37.7068 414.781,-29.0065"/>
</g>
<!-- 8&#45;&#45;4 -->
<g id="edge4" class="edge"><title>8&#45;&#45;4</title>
<path fill="none" stroke="black" d="M392.552,-153.376C350.37,-140.194 264.116,-113.239 220.099,-99.4839"/>
</g>
<!-- 8&#45;&#45;9 -->
<g id="edge19" class="edge"><title>8&#45;&#45;9</title>
<path fill="none" stroke="black" d="M407.606,-144.752C396.346,-125.984 376.153,-94.7708 353.95,-72 338.379,-56.0309 317.669,-41.1485 302.637,-31.245"/>
</g>
</g>
</svg>
