<?xml version="1.0" encoding="UTF-8" standalone="no"?>
<!DOCTYPE svg PUBLIC "-//W3C//DTD SVG 1.1//EN"
 "http://www.w3.org/Graphics/SVG/1.1/DTD/svg11.dtd">
<!-- Generated by graphviz version 2.38.0 (20140413.2041)
 -->
<!-- Title: %3 Pages: 1 -->
<svg width="422pt" height="220pt"
 viewBox="0.00 0.00 422.00 220.00" xmlns="http://www.w3.org/2000/svg" xmlns:xlink="http://www.w3.org/1999/xlink">
<g id="graph0" class="graph" transform="scale(1 1) rotate(0) translate(4 216)">
<title>%3</title>
<g id="clust1" class="cluster"><title>cluster_t1</title>
<polygon fill="none" stroke="red" points="246,-8 246,-204 406,-204 406,-8 246,-8"/>
</g>
<g id="clust2" class="cluster"><title>cluster_t2</title>
<polygon fill="none" stroke="blue" points="8,-8 8,-204 168,-204 168,-8 8,-8"/>
</g>
<!-- 1 -->
<g id="node1" class="node"><title>1</title>
<ellipse fill="none" stroke="black" cx="306" cy="-106" rx="31.6951" ry="18"/>
<text text-anchor="middle" x="306" y="-102.3" font-family="Times,serif" font-size="14.00">s_234</text>
</g>
<!-- 0 -->
<g id="node2" class="node"><title>0</title>
<ellipse fill="none" stroke="black" cx="131" cy="-34" rx="28.6953" ry="18"/>
<text text-anchor="middle" x="131" y="-30.3" font-family="Times,serif" font-size="14.00">⟨1|6⟩</text>
</g>
<!-- 1&#45;&#45;0 -->
<g id="edge17" class="edge"><title>1&#45;&#45;0</title>
<path fill="none" stroke="black" d="M280.553,-94.8214C246.711,-81.2845 187.353,-57.5413 154.515,-44.4062"/>
</g>
<!-- 3 -->
<g id="node3" class="node"><title>3</title>
<ellipse fill="none" stroke="black" cx="358" cy="-34" rx="28.6953" ry="18"/>
<text text-anchor="middle" x="358" y="-30.3" font-family="Times,serif" font-size="14.00">⟨2|3⟩</text>
</g>
<!-- 1&#45;&#45;3 -->
<g id="edge1" class="edge"><title>1&#45;&#45;3</title>
<path fill="none" stroke="black" d="M317.8,-89.1159C326.31,-77.66 337.748,-62.2627 346.247,-50.8212"/>
</g>
<!-- 9 -->
<g id="node9" class="node"><title>9</title>
<ellipse fill="none" stroke="black" cx="283" cy="-34" rx="28.6953" ry="18"/>
<text text-anchor="middle" x="283" y="-30.3" font-family="Times,serif" font-size="14.00">⟨3|4⟩</text>
</g>
<!-- 1&#45;&#45;9 -->
<g id="edge7" class="edge"><title>1&#45;&#45;9</title>
<path fill="none" stroke="black" d="M300.432,-88.055C296.816,-77.0492 292.122,-62.7636 288.516,-51.789"/>
</g>
<!-- 2 -->
<g id="node4" class="node"><title>2</title>
<ellipse fill="none" stroke="black" cx="366" cy="-178" rx="27.0966" ry="18"/>
<text text-anchor="middle" x="366" y="-174.3" font-family="Times,serif" font-size="14.00">[5|6]</text>
</g>
<!-- 2&#45;&#45;1 -->
<g id="edge3" class="edge"><title>2&#45;&#45;1</title>
<path fill="none" stroke="black" d="M352.981,-161.811C343.055,-150.231 329.43,-134.336 319.409,-122.644"/>
</g>
<!-- 2&#45;&#45;3 -->
<g id="edge14" class="edge"><title>2&#45;&#45;3</title>
<path fill="none" stroke="black" d="M372.819,-160.529C379.338,-142.614 387.433,-113.167 382,-88 379.187,-74.9671 372.894,-61.2833 367.457,-51.0849"/>
</g>
<!-- 6 -->
<g id="node8" class="node"><title>6</title>
<ellipse fill="none" stroke="black" cx="56" cy="-34" rx="28.6953" ry="18"/>
<text text-anchor="middle" x="56" y="-30.3" font-family="Times,serif" font-size="14.00">⟨1|2⟩</text>
</g>
<!-- 2&#45;&#45;6 -->
<g id="edge18" class="edge"><title>2&#45;&#45;6</title>
<path fill="none" stroke="black" d="M344.056,-166.964C297.689,-145.756 186.342,-94.8128 93,-52 88.3736,-49.878 83.4228,-47.6049 78.696,-45.4336"/>
</g>
<!-- 2&#45;&#45;9 -->
<g id="edge21" class="edge"><title>2&#45;&#45;9</title>
<path fill="none" stroke="black" d="M365.625,-159.709C364.497,-140.824 360.509,-110.296 347,-88 336.385,-70.4794 317.854,-56.0888 303.456,-46.7465"/>
</g>
<!-- 5 -->
<g id="node5" class="node"><title>5</title>
<ellipse fill="none" stroke="black" cx="128" cy="-178" rx="27.0966" ry="18"/>
<text text-anchor="middle" x="128" y="-174.3" font-family="Times,serif" font-size="14.00">[3|4]</text>
</g>
<!-- 5&#45;&#45;1 -->
<g id="edge6" class="edge"><title>5&#45;&#45;1</title>
<path fill="none" stroke="black" d="M150.906,-167.992C184.239,-154.883 245.91,-130.631 280.597,-116.99"/>
</g>
<!-- 5&#45;&#45;0 -->
<g id="edge13" class="edge"><title>5&#45;&#45;0</title>
<path fill="none" stroke="black" d="M136.284,-160.774C141.044,-150.523 146.55,-136.833 149,-124 152,-108.284 151.608,-103.786 149,-88 146.941,-75.536 142.332,-62.0635 138.293,-51.8208"/>
</g>
<!-- 4 -->
<g id="node6" class="node"><title>4</title>
<ellipse fill="none" stroke="black" cx="108" cy="-106" rx="31.6951" ry="18"/>
<text text-anchor="middle" x="108" y="-102.3" font-family="Times,serif" font-size="14.00">s_345</text>
</g>
<!-- 5&#45;&#45;4 -->
<g id="edge10" class="edge"><title>5&#45;&#45;4</title>
<path fill="none" stroke="black" d="M123.159,-160.055C120.06,-149.211 116.052,-135.183 112.936,-124.275"/>
</g>
<!-- 5&#45;&#45;6 -->
<g id="edge8" class="edge"><title>5&#45;&#45;6</title>
<path fill="none" stroke="black" d="M108.347,-165.488C94.3566,-156.171 76.4277,-141.709 67,-124 54.928,-101.324 53.8479,-70.9067 54.6055,-52.1468"/>
</g>
<!-- 4&#45;&#45;0 -->
<g id="edge11" class="edge"><title>4&#45;&#45;0</title>
<path fill="none" stroke="black" d="M113.568,-88.055C117.184,-77.0492 121.878,-62.7636 125.484,-51.789"/>
</g>
<!-- 4&#45;&#45;6 -->
<g id="edge12" class="edge"><title>4&#45;&#45;6</title>
<path fill="none" stroke="black" d="M96.2004,-89.1159C87.6903,-77.66 76.2523,-62.2627 67.7529,-50.8212"/>
</g>
<!-- 4&#45;&#45;9 -->
<g id="edge22" class="edge"><title>4&#45;&#45;9</title>
<path fill="none" stroke="black" d="M133.447,-94.8214C167.289,-81.2845 226.647,-57.5413 259.485,-44.4062"/>
</g>
<!-- 7 -->
<g id="node7" class="node"><title>7</title>
<ellipse fill="none" stroke="black" cx="51" cy="-178" rx="27.0966" ry="18"/>
<text text-anchor="middle" x="51" y="-174.3" font-family="Times,serif" font-size="14.00">[4|5]</text>
</g>
<!-- 7&#45;&#45;0 -->
<g id="edge2" class="edge"><title>7&#45;&#45;0</title>
<path fill="none" stroke="black" d="M50.6765,-159.737C51.0672,-140.876 53.9383,-110.369 67,-88 77.3297,-70.3095 95.8913,-55.9374 110.374,-46.6454"/>
</g>
<!-- 7&#45;&#45;3 -->
<g id="edge20" class="edge"><title>7&#45;&#45;3</title>
<path fill="none" stroke="black" d="M73.0787,-166.788C129.585,-140.651 278.971,-71.5544 335.709,-45.3106"/>
</g>
<!-- 7&#45;&#45;4 -->
<g id="edge16" class="edge"><title>7&#45;&#45;4</title>
<path fill="none" stroke="black" d="M63.3682,-161.811C72.798,-150.231 85.7411,-134.336 95.2613,-122.644"/>
</g>
<!-- 7&#45;&#45;6 -->
<g id="edge9" class="edge"><title>7&#45;&#45;6</title>
<path fill="none" stroke="black" d="M43.5005,-160.689C39.1922,-150.406 34.2097,-136.712 32,-124 29.2598,-108.236 28.6239,-103.64 32,-88 34.8133,-74.9671 41.1063,-61.2833 46.5425,-51.0849"/>
</g>
<!-- 8 -->
<g id="node10" class="node"><title>8</title>
<ellipse fill="none" stroke="black" cx="289" cy="-178" rx="27.0966" ry="18"/>
<text text-anchor="middle" x="289" y="-174.3" font-family="Times,serif" font-size="14.00">[1|6]</text>
</g>
<!-- 8&#45;&#45;1 -->
<g id="edge5" class="edge"><title>8&#45;&#45;1</title>
<path fill="none" stroke="black" d="M293.115,-160.055C295.749,-149.211 299.156,-135.183 301.805,-124.275"/>
</g>
<!-- 8&#45;&#45;3 -->
<g id="edge15" class="edge"><title>8&#45;&#45;3</title>
<path fill="none" stroke="black" d="M308.255,-164.869C321.477,-155.431 338.175,-141.089 347,-124 358.787,-101.175 359.95,-70.8005 359.287,-52.0901"/>
</g>
<!-- 8&#45;&#45;4 -->
<g id="edge4" class="edge"><title>8&#45;&#45;4</title>
<path fill="none" stroke="black" d="M266.076,-168.134C232.211,-155.038 169.016,-130.597 133.651,-116.92"/>
</g>
<!-- 8&#45;&#45;9 -->
<g id="edge19" class="edge"><title>8&#45;&#45;9</title>
<path fill="none" stroke="black" d="M279.543,-160.915C274.106,-150.717 267.813,-137.033 265,-124 261.624,-108.36 262.392,-103.786 265,-88 267.059,-75.536 271.668,-62.0635 275.707,-51.8208"/>
</g>
</g>
</svg>
