<?xml version="1.0" encoding="UTF-8" standalone="no"?>
<!DOCTYPE svg PUBLIC "-//W3C//DTD SVG 1.1//EN"
 "http://www.w3.org/Graphics/SVG/1.1/DTD/svg11.dtd">
<!-- Generated by graphviz version 2.38.0 (20140413.2041)
 -->
<!-- Title: %3 Pages: 1 -->
<svg width="2852pt" height="836pt"
 viewBox="0.00 0.00 2852.00 836.00" xmlns="http://www.w3.org/2000/svg" xmlns:xlink="http://www.w3.org/1999/xlink">
<g id="graph0" class="graph" transform="scale(1 1) rotate(0) translate(4 832)">
<title>%3</title>
<!-- 24 -->
<g id="node1" class="node"><title>24</title>
<ellipse fill="none" stroke="black" cx="1948" cy="-90" rx="28.6953" ry="18"/>
<text text-anchor="middle" x="1948" y="-86.3" font-family="Times,serif" font-size="14.00">⟨5|6⟩</text>
</g>
<!-- 25 -->
<g id="node2" class="node"><title>25</title>
<ellipse fill="none" stroke="black" cx="1976" cy="-18" rx="50.0912" ry="18"/>
<text text-anchor="middle" x="1976" y="-14.3" font-family="Times,serif" font-size="14.00">⟨6|(1+2)|6]</text>
</g>
<!-- 24&#45;&#45;25 -->
<g id="edge71" class="edge"><title>24&#45;&#45;25</title>
<path fill="none" stroke="black" d="M1954.64,-72.411C1959.03,-61.4141 1964.79,-47.0274 1969.22,-35.9562"/>
</g>
<!-- 3 -->
<g id="node13" class="node"><title>3</title>
<ellipse fill="none" stroke="black" cx="1515" cy="-18" rx="50.0912" ry="18"/>
<text text-anchor="middle" x="1515" y="-14.3" font-family="Times,serif" font-size="14.00">⟨6|(4+5)|6]</text>
</g>
<!-- 24&#45;&#45;3 -->
<g id="edge146" class="edge"><title>24&#45;&#45;3</title>
<path fill="none" stroke="black" d="M1920.59,-84.5681C1847.8,-72.8021 1649.19,-40.693 1559.73,-26.2308"/>
</g>
<!-- 26 -->
<g id="node3" class="node"><title>26</title>
<ellipse fill="none" stroke="black" cx="752" cy="-450" rx="31.6951" ry="18"/>
<text text-anchor="middle" x="752" y="-446.3" font-family="Times,serif" font-size="14.00">s_123</text>
</g>
<!-- 26&#45;&#45;24 -->
<g id="edge100" class="edge"><title>26&#45;&#45;24</title>
<path fill="none" stroke="black" d="M776.19,-437.975C874.365,-393.696 1253.48,-227.18 1582,-144 1705.55,-112.719 1857.55,-98.0827 1919.6,-93.086"/>
</g>
<!-- 5 -->
<g id="node15" class="node"><title>5</title>
<ellipse fill="none" stroke="black" cx="958" cy="-234" rx="28.6953" ry="18"/>
<text text-anchor="middle" x="958" y="-230.3" font-family="Times,serif" font-size="14.00">⟨2|3⟩</text>
</g>
<!-- 26&#45;&#45;5 -->
<g id="edge75" class="edge"><title>26&#45;&#45;5</title>
<path fill="none" stroke="black" d="M746.259,-432.264C736.488,-400.412 720.73,-330.471 754,-288 775.607,-260.418 879.041,-244.444 929.79,-238.145"/>
</g>
<!-- 7 -->
<g id="node17" class="node"><title>7</title>
<ellipse fill="none" stroke="black" cx="1070" cy="-90" rx="28.6953" ry="18"/>
<text text-anchor="middle" x="1070" y="-86.3" font-family="Times,serif" font-size="14.00">⟨4|5⟩</text>
</g>
<!-- 26&#45;&#45;7 -->
<g id="edge109" class="edge"><title>26&#45;&#45;7</title>
<path fill="none" stroke="black" d="M740.146,-432.893C722.66,-407.494 692,-355.977 692,-307 692,-307 692,-307 692,-233 692,-158.078 955.526,-109.273 1042.51,-95.2045"/>
</g>
<!-- 38 -->
<g id="node21" class="node"><title>38</title>
<ellipse fill="none" stroke="black" cx="559" cy="-378" rx="28.6953" ry="18"/>
<text text-anchor="middle" x="559" y="-374.3" font-family="Times,serif" font-size="14.00">⟨1|3⟩</text>
</g>
<!-- 26&#45;&#45;38 -->
<g id="edge46" class="edge"><title>26&#45;&#45;38</title>
<path fill="none" stroke="black" d="M725.971,-439.559C688.416,-425.938 619.549,-400.961 583.1,-387.741"/>
</g>
<!-- 14 -->
<g id="node27" class="node"><title>14</title>
<ellipse fill="none" stroke="black" cx="1418" cy="-378" rx="28.6953" ry="18"/>
<text text-anchor="middle" x="1418" y="-374.3" font-family="Times,serif" font-size="14.00">⟨1|2⟩</text>
</g>
<!-- 26&#45;&#45;14 -->
<g id="edge127" class="edge"><title>26&#45;&#45;14</title>
<path fill="none" stroke="black" d="M782.288,-444.425C806.947,-440.786 842.675,-435.707 874,-432 1070.95,-408.694 1308.9,-388.117 1389.64,-381.347"/>
</g>
<!-- 27 -->
<g id="node4" class="node"><title>27</title>
<ellipse fill="none" stroke="black" cx="1428" cy="-666" rx="27.0966" ry="18"/>
<text text-anchor="middle" x="1428" y="-662.3" font-family="Times,serif" font-size="14.00">[2|3]</text>
</g>
<!-- 27&#45;&#45;24 -->
<g id="edge8" class="edge"><title>27&#45;&#45;24</title>
<path fill="none" stroke="black" d="M1455.46,-665.073C1540.92,-664.768 1809.38,-659.791 2025,-612 2059.38,-604.379 2289,-513.182 2323,-504 2409.35,-480.68 2456.8,-530.275 2521,-468 2550.03,-439.839 2540,-419.447 2540,-379 2540,-379 2540,-379 2540,-233 2540,-166.242 2481.17,-168.335 2419,-144 2337.39,-112.055 2065.52,-96.5779 1976.49,-92.2798"/>
</g>
<!-- 27&#45;&#45;26 -->
<g id="edge45" class="edge"><title>27&#45;&#45;26</title>
<path fill="none" stroke="black" d="M1400.85,-663.905C1329.03,-660.577 1128.47,-648.47 966,-612 868.908,-590.206 812.86,-620.233 754,-540 738.641,-519.065 742.58,-487.278 747.102,-467.898"/>
</g>
<!-- 21 -->
<g id="node6" class="node"><title>21</title>
<ellipse fill="none" stroke="black" cx="2096" cy="-450" rx="31.6951" ry="18"/>
<text text-anchor="middle" x="2096" y="-446.3" font-family="Times,serif" font-size="14.00">s_234</text>
</g>
<!-- 27&#45;&#45;21 -->
<g id="edge168" class="edge"><title>27&#45;&#45;21</title>
<path fill="none" stroke="black" d="M1454.1,-660.205C1496.53,-652.114 1582.89,-634.419 1654,-612 1777.26,-573.136 1801.7,-545.808 1924,-504 1979.11,-485.16 1994.65,-486.108 2050,-468 2056.64,-465.829 2063.74,-463.305 2070.33,-460.876"/>
</g>
<!-- 23 -->
<g id="node8" class="node"><title>23</title>
<ellipse fill="none" stroke="black" cx="2500" cy="-522" rx="50.0912" ry="18"/>
<text text-anchor="middle" x="2500" y="-518.3" font-family="Times,serif" font-size="14.00">⟨1|(5+6)|1]</text>
</g>
<!-- 27&#45;&#45;23 -->
<g id="edge40" class="edge"><title>27&#45;&#45;23</title>
<path fill="none" stroke="black" d="M1455.67,-664.803C1587.03,-663.646 2148.36,-656.159 2317,-612 2378.01,-596.026 2442.91,-559.058 2476.61,-538.139"/>
</g>
<!-- 29 -->
<g id="node10" class="node"><title>29</title>
<ellipse fill="none" stroke="black" cx="1346" cy="-450" rx="50.0912" ry="18"/>
<text text-anchor="middle" x="1346" y="-446.3" font-family="Times,serif" font-size="14.00">⟨5|(1+6)|5]</text>
</g>
<!-- 27&#45;&#45;29 -->
<g id="edge91" class="edge"><title>27&#45;&#45;29</title>
<path fill="none" stroke="black" d="M1421.57,-648.208C1406.27,-608.302 1367.89,-508.134 1352.52,-468.01"/>
</g>
<!-- 1 -->
<g id="node11" class="node"><title>1</title>
<ellipse fill="none" stroke="black" cx="566" cy="-162" rx="50.0912" ry="18"/>
<text text-anchor="middle" x="566" y="-158.3" font-family="Times,serif" font-size="14.00">⟨3|(1+6)|2]</text>
</g>
<!-- 27&#45;&#45;1 -->
<g id="edge63" class="edge"><title>27&#45;&#45;1</title>
<path fill="none" stroke="black" d="M1400.48,-665.45C1235.46,-667.467 379.875,-668.121 247,-468 157.465,-333.153 432.92,-213.167 531.957,-175.34"/>
</g>
<!-- 4 -->
<g id="node16" class="node"><title>4</title>
<ellipse fill="none" stroke="black" cx="1247" cy="-522" rx="27.0966" ry="18"/>
<text text-anchor="middle" x="1247" y="-518.3" font-family="Times,serif" font-size="14.00">[5|6]</text>
</g>
<!-- 27&#45;&#45;4 -->
<g id="edge114" class="edge"><title>27&#45;&#45;4</title>
<path fill="none" stroke="black" d="M1410.97,-651.641C1376.39,-624.508 1298.29,-563.236 1263.85,-536.22"/>
</g>
<!-- 27&#45;&#45;7 -->
<g id="edge139" class="edge"><title>27&#45;&#45;7</title>
<path fill="none" stroke="black" d="M1405.62,-655.144C1382.15,-644.724 1344.27,-627.66 1312,-612 1192.11,-553.82 1156.83,-546.308 1049,-468 1010.03,-439.696 996.647,-434.721 968,-396 918.757,-329.44 889.411,-292.938 920,-216 943.169,-157.724 1011.19,-118.396 1047.13,-101.064"/>
</g>
<!-- 8 -->
<g id="node20" class="node"><title>8</title>
<ellipse fill="none" stroke="black" cx="1672" cy="-378" rx="28.6953" ry="18"/>
<text text-anchor="middle" x="1672" y="-374.3" font-family="Times,serif" font-size="14.00">⟨1|6⟩</text>
</g>
<!-- 27&#45;&#45;8 -->
<g id="edge166" class="edge"><title>27&#45;&#45;8</title>
<path fill="none" stroke="black" d="M1440.77,-650.026C1482.84,-600.719 1616.75,-443.763 1659.06,-394.171"/>
</g>
<!-- 27&#45;&#45;38 -->
<g id="edge126" class="edge"><title>27&#45;&#45;38</title>
<path fill="none" stroke="black" d="M1400.68,-664.886C1248.38,-663.56 507.369,-647.846 403,-468 394.969,-454.161 393.682,-445.007 403,-432 432.068,-391.424 493.991,-381.539 530.473,-379.357"/>
</g>
<!-- 13 -->
<g id="node24" class="node"><title>13</title>
<ellipse fill="none" stroke="black" cx="339" cy="-18" rx="50.0912" ry="18"/>
<text text-anchor="middle" x="339" y="-14.3" font-family="Times,serif" font-size="14.00">⟨5|(1+6)|4]</text>
</g>
<!-- 27&#45;&#45;13 -->
<g id="edge52" class="edge"><title>27&#45;&#45;13</title>
<path fill="none" stroke="black" d="M1400.33,-664.972C1259.53,-664.612 621.938,-660.296 431,-612 346.243,-590.562 114,-466.426 114,-379 114,-379 114,-379 114,-161 114,-76.4699 228.975,-40.2292 294.547,-26.4342"/>
</g>
<!-- 12 -->
<g id="node25" class="node"><title>12</title>
<ellipse fill="none" stroke="black" cx="1464" cy="-450" rx="50.0912" ry="18"/>
<text text-anchor="middle" x="1464" y="-446.3" font-family="Times,serif" font-size="14.00">⟨3|(1+2)|3]</text>
</g>
<!-- 27&#45;&#45;12 -->
<g id="edge78" class="edge"><title>27&#45;&#45;12</title>
<path fill="none" stroke="black" d="M1430.11,-648.009C1433.86,-618.57 1442.21,-556.22 1452,-504 1454.26,-491.945 1457.32,-478.466 1459.78,-468.118"/>
</g>
<!-- 15 -->
<g id="node26" class="node"><title>15</title>
<ellipse fill="none" stroke="black" cx="1002" cy="-594" rx="27.0966" ry="18"/>
<text text-anchor="middle" x="1002" y="-590.3" font-family="Times,serif" font-size="14.00">[4|5]</text>
</g>
<!-- 27&#45;&#45;15 -->
<g id="edge66" class="edge"><title>27&#45;&#45;15</title>
<path fill="none" stroke="black" d="M1401.67,-660.674C1325.3,-648.125 1104.3,-611.81 1028.15,-599.297"/>
</g>
<!-- 31 -->
<g id="node32" class="node"><title>31</title>
<ellipse fill="none" stroke="black" cx="2382" cy="-522" rx="50.0912" ry="18"/>
<text text-anchor="middle" x="2382" y="-518.3" font-family="Times,serif" font-size="14.00">⟨3|(4+5)|3]</text>
</g>
<!-- 27&#45;&#45;31 -->
<g id="edge39" class="edge"><title>27&#45;&#45;31</title>
<path fill="none" stroke="black" d="M1455.33,-664.344C1592.47,-660.913 2202.2,-643.959 2280,-612 2299.67,-603.918 2342.52,-562.774 2365.93,-539.36"/>
</g>
<!-- 30 -->
<g id="node33" class="node"><title>30</title>
<ellipse fill="none" stroke="black" cx="2331" cy="-378" rx="28.6953" ry="18"/>
<text text-anchor="middle" x="2331" y="-374.3" font-family="Times,serif" font-size="14.00">⟨1|5⟩</text>
</g>
<!-- 27&#45;&#45;30 -->
<g id="edge74" class="edge"><title>27&#45;&#45;30</title>
<path fill="none" stroke="black" d="M1455.35,-664.346C1533.14,-662.03 1761.99,-652.046 1947,-612 2087.55,-581.579 2117.81,-555.698 2252,-504 2294.52,-487.618 2322.04,-505.454 2348,-468 2363.14,-446.149 2350.88,-414.361 2340.8,-395.279"/>
</g>
<!-- 34 -->
<g id="node37" class="node"><title>34</title>
<ellipse fill="none" stroke="black" cx="1911" cy="-594" rx="27.0966" ry="18"/>
<text text-anchor="middle" x="1911" y="-590.3" font-family="Times,serif" font-size="14.00">[3|4]</text>
</g>
<!-- 27&#45;&#45;34 -->
<g id="edge99" class="edge"><title>27&#45;&#45;34</title>
<path fill="none" stroke="black" d="M1454.64,-661.147C1515.01,-652.413 1666.92,-630.433 1794,-612 1825.08,-607.492 1860.8,-602.3 1884.51,-598.852"/>
</g>
<!-- 20 -->
<g id="node5" class="node"><title>20</title>
<ellipse fill="none" stroke="black" cx="2005" cy="-234" rx="28.6953" ry="18"/>
<text text-anchor="middle" x="2005" y="-230.3" font-family="Times,serif" font-size="14.00">⟨3|4⟩</text>
</g>
<!-- 20&#45;&#45;24 -->
<g id="edge148" class="edge"><title>20&#45;&#45;24</title>
<path fill="none" stroke="black" d="M1998.35,-216.433C1987.43,-189.217 1965.8,-135.334 1954.78,-107.902"/>
</g>
<!-- 20&#45;&#45;25 -->
<g id="edge136" class="edge"><title>20&#45;&#45;25</title>
<path fill="none" stroke="black" d="M2003.39,-216.027C2000.5,-186.615 1994.01,-124.303 1986,-72 1984.16,-59.9674 1981.61,-46.4882 1979.54,-36.1344"/>
</g>
<!-- 22 -->
<g id="node7" class="node"><title>22</title>
<ellipse fill="none" stroke="black" cx="1804" cy="-162" rx="50.0912" ry="18"/>
<text text-anchor="middle" x="1804" y="-158.3" font-family="Times,serif" font-size="14.00">⟨4|(2+3)|4]</text>
</g>
<!-- 20&#45;&#45;22 -->
<g id="edge35" class="edge"><title>20&#45;&#45;22</title>
<path fill="none" stroke="black" d="M1980.35,-224.417C1944.82,-212.04 1879.03,-189.129 1838.62,-175.058"/>
</g>
<!-- 20&#45;&#45;7 -->
<g id="edge117" class="edge"><title>20&#45;&#45;7</title>
<path fill="none" stroke="black" d="M1978.01,-227.722C1930.72,-218.427 1829.87,-198.378 1745,-180 1675.03,-164.849 1658.63,-155.666 1588,-144 1402.7,-113.397 1177.01,-97.5597 1098.52,-92.6771"/>
</g>
<!-- 11 -->
<g id="node22" class="node"><title>11</title>
<ellipse fill="none" stroke="black" cx="1186" cy="-162" rx="50.0912" ry="18"/>
<text text-anchor="middle" x="1186" y="-158.3" font-family="Times,serif" font-size="14.00">⟨4|(5+6)|4]</text>
</g>
<!-- 20&#45;&#45;11 -->
<g id="edge81" class="edge"><title>20&#45;&#45;11</title>
<path fill="none" stroke="black" d="M1976.81,-230.59C1856.7,-220.325 1386.9,-180.171 1234.22,-167.121"/>
</g>
<!-- 36 -->
<g id="node35" class="node"><title>36</title>
<ellipse fill="none" stroke="black" cx="2116" cy="-162" rx="50.0912" ry="18"/>
<text text-anchor="middle" x="2116" y="-158.3" font-family="Times,serif" font-size="14.00">⟨5|(1+2)|6]</text>
</g>
<!-- 20&#45;&#45;36 -->
<g id="edge115" class="edge"><title>20&#45;&#45;36</title>
<path fill="none" stroke="black" d="M2024.59,-220.647C2043.51,-208.715 2072.19,-190.629 2092.37,-177.904"/>
</g>
<!-- 21&#45;&#45;24 -->
<g id="edge159" class="edge"><title>21&#45;&#45;24</title>
<path fill="none" stroke="black" d="M2113.1,-434.538C2123.49,-424.757 2136.04,-410.936 2143,-396 2190.71,-293.676 2245.17,-232.443 2175,-144 2150.48,-113.09 2031.6,-98.5178 1976.35,-93.3285"/>
</g>
<!-- 21&#45;&#45;20 -->
<g id="edge134" class="edge"><title>21&#45;&#45;20</title>
<path fill="none" stroke="black" d="M2105.94,-432.41C2123.08,-401.406 2153.66,-333.686 2124,-288 2103.92,-257.082 2061.17,-244.049 2032.76,-238.661"/>
</g>
<!-- 21&#45;&#45;5 -->
<g id="edge131" class="edge"><title>21&#45;&#45;5</title>
<path fill="none" stroke="black" d="M2064.32,-447.317C1943.96,-440.821 1515.06,-416.707 1380,-396 1241.47,-374.762 1199.53,-384.264 1073,-324 1032.66,-304.785 993.126,-269.595 972.57,-249.706"/>
</g>
<!-- 21&#45;&#45;8 -->
<g id="edge23" class="edge"><title>21&#45;&#45;8</title>
<path fill="none" stroke="black" d="M2065.85,-444.022C1986.95,-430.997 1775.32,-396.057 1699.5,-383.54"/>
</g>
<!-- 21&#45;&#45;30 -->
<g id="edge95" class="edge"><title>21&#45;&#45;30</title>
<path fill="none" stroke="black" d="M2123.42,-440.833C2169.3,-427.165 2261,-399.851 2305.54,-386.582"/>
</g>
<!-- 22&#45;&#45;24 -->
<g id="edge125" class="edge"><title>22&#45;&#45;24</title>
<path fill="none" stroke="black" d="M1832.45,-147.17C1859.83,-133.862 1900.66,-114.014 1925.74,-101.821"/>
</g>
<!-- 22&#45;&#45;7 -->
<g id="edge60" class="edge"><title>22&#45;&#45;7</title>
<path fill="none" stroke="black" d="M1766.69,-149.876C1757.99,-147.624 1748.73,-145.491 1740,-144 1494.16,-101.98 1191.76,-93.1807 1098.64,-91.4207"/>
</g>
<!-- 28 -->
<g id="node9" class="node"><title>28</title>
<ellipse fill="none" stroke="black" cx="1918" cy="-306" rx="50.0912" ry="18"/>
<text text-anchor="middle" x="1918" y="-302.3" font-family="Times,serif" font-size="14.00">⟨3|(1+2)|4]</text>
</g>
<!-- 28&#45;&#45;20 -->
<g id="edge150" class="edge"><title>28&#45;&#45;20</title>
<path fill="none" stroke="black" d="M1937.74,-289.116C1952.88,-276.934 1973.56,-260.295 1987.98,-248.695"/>
</g>
<!-- 1&#45;&#45;7 -->
<g id="edge137" class="edge"><title>1&#45;&#45;7</title>
<path fill="none" stroke="black" d="M603.701,-150.049C612.293,-147.816 621.42,-145.648 630,-144 783.954,-114.431 971.564,-98.3568 1041.73,-93.027"/>
</g>
<!-- 0 -->
<g id="node12" class="node"><title>0</title>
<ellipse fill="none" stroke="black" cx="462" cy="-450" rx="50.0912" ry="18"/>
<text text-anchor="middle" x="462" y="-446.3" font-family="Times,serif" font-size="14.00">⟨5|(3+4)|5]</text>
</g>
<!-- 2 -->
<g id="node14" class="node"><title>2</title>
<ellipse fill="none" stroke="black" cx="306" cy="-450" rx="50.0912" ry="18"/>
<text text-anchor="middle" x="306" y="-446.3" font-family="Times,serif" font-size="14.00">⟨1|(2+3)|1]</text>
</g>
<!-- 5&#45;&#45;24 -->
<g id="edge70" class="edge"><title>5&#45;&#45;24</title>
<path fill="none" stroke="black" d="M976.648,-219.766C1006.66,-199.284 1068.27,-160.545 1127,-144 1280.63,-100.72 1791.78,-92.6137 1919.09,-91.2531"/>
</g>
<!-- 5&#45;&#45;1 -->
<g id="edge13" class="edge"><title>5&#45;&#45;1</title>
<path fill="none" stroke="black" d="M930.747,-228.133C863.9,-216.196 691.345,-185.383 609.854,-170.831"/>
</g>
<!-- 5&#45;&#45;3 -->
<g id="edge122" class="edge"><title>5&#45;&#45;3</title>
<path fill="none" stroke="black" d="M959.901,-215.94C964.764,-181.526 981.101,-104.322 1032,-72 1102.95,-26.9484 1356.05,-19.9195 1464.78,-19.0171"/>
</g>
<!-- 5&#45;&#45;7 -->
<g id="edge51" class="edge"><title>5&#45;&#45;7</title>
<path fill="none" stroke="black" d="M967.578,-216.95C978.785,-198.638 998.323,-168.109 1018,-144 1029.25,-130.219 1043.48,-115.894 1054.21,-105.617"/>
</g>
<!-- 5&#45;&#45;11 -->
<g id="edge130" class="edge"><title>5&#45;&#45;11</title>
<path fill="none" stroke="black" d="M983.271,-225.241C1023.5,-212.889 1102.32,-188.691 1148.94,-174.377"/>
</g>
<!-- 4&#45;&#45;26 -->
<g id="edge42" class="edge"><title>4&#45;&#45;26</title>
<path fill="none" stroke="black" d="M1220.39,-517.236C1135.64,-505.253 872.402,-468.027 782.475,-455.31"/>
</g>
<!-- 4&#45;&#45;20 -->
<g id="edge3" class="edge"><title>4&#45;&#45;20</title>
<path fill="none" stroke="black" d="M1249.39,-503.941C1253.28,-483.147 1263.14,-448.718 1287,-432 1375.88,-369.736 1667.81,-418.336 1774,-396 1867.68,-376.296 1910.54,-392.899 1977,-324 1996,-304.298 2002.12,-271.822 2004.08,-252.024"/>
</g>
<!-- 4&#45;&#45;21 -->
<g id="edge86" class="edge"><title>4&#45;&#45;21</title>
<path fill="none" stroke="black" d="M1273.98,-518.847C1363.06,-511.727 1655.9,-488.248 1898,-468 1956.96,-463.069 2025.79,-457.115 2064.8,-453.722"/>
</g>
<!-- 4&#45;&#45;28 -->
<g id="edge79" class="edge"><title>4&#45;&#45;28</title>
<path fill="none" stroke="black" d="M1242.53,-503.925C1238.4,-483.767 1235.37,-450.634 1254,-432 1289.93,-396.057 1660.65,-408.157 1710,-396 1778.65,-379.088 1853.59,-341.958 1892.04,-321.403"/>
</g>
<!-- 4&#45;&#45;29 -->
<g id="edge164" class="edge"><title>4&#45;&#45;29</title>
<path fill="none" stroke="black" d="M1265.16,-508.161C1281.79,-496.399 1306.45,-478.965 1324.16,-466.446"/>
</g>
<!-- 4&#45;&#45;0 -->
<g id="edge47" class="edge"><title>4&#45;&#45;0</title>
<path fill="none" stroke="black" d="M1220.47,-517.716C1190.52,-514.072 1140.31,-508.159 1097,-504 894.193,-484.525 842.971,-485.686 640,-468 595.776,-464.147 545.417,-459.294 509.577,-455.76"/>
</g>
<!-- 4&#45;&#45;2 -->
<g id="edge68" class="edge"><title>4&#45;&#45;2</title>
<path fill="none" stroke="black" d="M1220.49,-517.501C1190.56,-513.664 1140.36,-507.578 1097,-504 789.187,-478.597 709.901,-502.723 403,-468 385.162,-465.982 365.639,-462.759 348.813,-459.66"/>
</g>
<!-- 4&#45;&#45;5 -->
<g id="edge7" class="edge"><title>4&#45;&#45;5</title>
<path fill="none" stroke="black" d="M1222.13,-513.843C1161.21,-494.802 1005.05,-436.505 944,-324 931.542,-301.041 941.296,-270.162 949.583,-251.467"/>
</g>
<!-- 4&#45;&#45;38 -->
<g id="edge15" class="edge"><title>4&#45;&#45;38</title>
<path fill="none" stroke="black" d="M1220.19,-517.799C1190.2,-514.256 1140.15,-508.456 1097,-504 925.612,-486.298 875.016,-520.783 711,-468 658.021,-450.95 603.546,-413.16 576.479,-392.737"/>
</g>
<!-- 4&#45;&#45;12 -->
<g id="edge153" class="edge"><title>4&#45;&#45;12</title>
<path fill="none" stroke="black" d="M1271.05,-513.241C1309.12,-500.961 1383.49,-476.97 1427.96,-462.626"/>
</g>
<!-- 4&#45;&#45;14 -->
<g id="edge24" class="edge"><title>4&#45;&#45;14</title>
<path fill="none" stroke="black" d="M1233.88,-506.068C1218.95,-487.177 1198.71,-454.412 1216,-432 1237.21,-404.513 1339.72,-388.492 1390.03,-382.163"/>
</g>
<!-- 4&#45;&#45;30 -->
<g id="edge96" class="edge"><title>4&#45;&#45;30</title>
<path fill="none" stroke="black" d="M1273.53,-517.525C1422.23,-498.045 2151.07,-402.57 2303.15,-382.648"/>
</g>
<!-- 4&#45;&#45;36 -->
<g id="edge124" class="edge"><title>4&#45;&#45;36</title>
<path fill="none" stroke="black" d="M1274.07,-518.48C1361.98,-509.687 1646.5,-476.412 1867,-396 1930.52,-372.837 1950.25,-368.671 2001,-324 2050.5,-280.424 2090.44,-211.649 2107.31,-179.986"/>
</g>
<!-- 7&#45;&#45;25 -->
<g id="edge6" class="edge"><title>7&#45;&#45;25</title>
<path fill="none" stroke="black" d="M1098.36,-86.8089C1227.77,-76.8103 1763.01,-35.4563 1927.61,-22.7385"/>
</g>
<!-- 7&#45;&#45;13 -->
<g id="edge53" class="edge"><title>7&#45;&#45;13</title>
<path fill="none" stroke="black" d="M1041.79,-86.2988C931.197,-75.7083 526.393,-36.9446 386.744,-23.572"/>
</g>
<!-- 6 -->
<g id="node18" class="node"><title>6</title>
<ellipse fill="none" stroke="black" cx="1340" cy="-306" rx="50.0912" ry="18"/>
<text text-anchor="middle" x="1340" y="-302.3" font-family="Times,serif" font-size="14.00">⟨2|(1+6)|2]</text>
</g>
<!-- 6&#45;&#45;20 -->
<g id="edge41" class="edge"><title>6&#45;&#45;20</title>
<path fill="none" stroke="black" d="M1383.34,-296.636C1400.06,-293.611 1419.38,-290.363 1437,-288 1643.14,-260.364 1893.3,-242.404 1976.54,-236.842"/>
</g>
<!-- 6&#45;&#45;5 -->
<g id="edge48" class="edge"><title>6&#45;&#45;5</title>
<path fill="none" stroke="black" d="M1296.55,-297.038C1217.16,-282.49 1050.8,-252.005 985.316,-240.005"/>
</g>
<!-- 6&#45;&#45;7 -->
<g id="edge121" class="edge"><title>6&#45;&#45;7</title>
<path fill="none" stroke="black" d="M1343.1,-288.029C1347.98,-255.46 1353.41,-183.889 1316,-144 1286.56,-112.61 1156.76,-98.1456 1098.49,-93.1459"/>
</g>
<!-- 9 -->
<g id="node19" class="node"><title>9</title>
<ellipse fill="none" stroke="black" cx="1496" cy="-306" rx="50.0912" ry="18"/>
<text text-anchor="middle" x="1496" y="-302.3" font-family="Times,serif" font-size="14.00">⟨2|(3+4)|2]</text>
</g>
<!-- 9&#45;&#45;24 -->
<g id="edge19" class="edge"><title>9&#45;&#45;24</title>
<path fill="none" stroke="black" d="M1504.62,-288.223C1523.25,-253.979 1570.89,-176.53 1636,-144 1731.6,-96.2404 1862.03,-90.4591 1919.18,-90.4377"/>
</g>
<!-- 9&#45;&#45;5 -->
<g id="edge25" class="edge"><title>9&#45;&#45;5</title>
<path fill="none" stroke="black" d="M1452.62,-296.883C1435.9,-293.889 1416.59,-290.596 1399,-288 1243.57,-265.056 1056.2,-245.061 986.189,-237.855"/>
</g>
<!-- 8&#45;&#45;24 -->
<g id="edge83" class="edge"><title>8&#45;&#45;24</title>
<path fill="none" stroke="black" d="M1688.38,-362.981C1700.42,-352.509 1717.05,-337.701 1731,-324 1811.45,-244.982 1901.48,-143.942 1934.74,-106.154"/>
</g>
<!-- 8&#45;&#45;25 -->
<g id="edge31" class="edge"><title>8&#45;&#45;25</title>
<path fill="none" stroke="black" d="M1700.82,-377.274C1793.62,-376.346 2083.93,-358.847 2175,-180 2213.77,-103.867 2082.08,-51.2839 2014.09,-29.816"/>
</g>
<!-- 8&#45;&#45;20 -->
<g id="edge156" class="edge"><title>8&#45;&#45;20</title>
<path fill="none" stroke="black" d="M1695.6,-367.502C1701.89,-365.018 1708.69,-362.372 1715,-360 1759.61,-343.237 1774.64,-347.667 1816,-324 1837.63,-311.622 1837.4,-300.441 1859,-288 1898.14,-265.455 1948.56,-249.722 1978.75,-241.54"/>
</g>
<!-- 8&#45;&#45;22 -->
<g id="edge84" class="edge"><title>8&#45;&#45;22</title>
<path fill="none" stroke="black" d="M1681.92,-360.915C1706.26,-321.451 1768.76,-220.125 1793.6,-179.862"/>
</g>
<!-- 8&#45;&#45;3 -->
<g id="edge144" class="edge"><title>8&#45;&#45;3</title>
<path fill="none" stroke="black" d="M1664.64,-360.213C1638.33,-300.218 1549.1,-96.7644 1522.53,-36.1672"/>
</g>
<!-- 8&#45;&#45;5 -->
<g id="edge56" class="edge"><title>8&#45;&#45;5</title>
<path fill="none" stroke="black" d="M1643.81,-374.489C1579.19,-368.447 1415.56,-351.529 1281,-324 1222.3,-311.992 1048.92,-261.68 983.434,-242.485"/>
</g>
<!-- 8&#45;&#45;7 -->
<g id="edge167" class="edge"><title>8&#45;&#45;7</title>
<path fill="none" stroke="black" d="M1656.99,-362.605C1612.73,-321.085 1477.34,-200.478 1341,-144 1257.07,-109.233 1148.9,-96.8963 1098.37,-92.833"/>
</g>
<!-- 8&#45;&#45;9 -->
<g id="edge110" class="edge"><title>8&#45;&#45;9</title>
<path fill="none" stroke="black" d="M1648.26,-367.559C1617.3,-355.244 1563,-333.647 1528.3,-319.848"/>
</g>
<!-- 8&#45;&#45;13 -->
<g id="edge32" class="edge"><title>8&#45;&#45;13</title>
<path fill="none" stroke="black" d="M1643.73,-374.645C1548.45,-366.633 1239.53,-340.043 1141,-324 855.801,-277.562 761.445,-316.94 507,-180 437.633,-142.667 376.466,-68.7938 351.255,-35.7083"/>
</g>
<!-- 11&#45;&#45;7 -->
<g id="edge85" class="edge"><title>11&#45;&#45;7</title>
<path fill="none" stroke="black" d="M1161.4,-146.155C1140.12,-133.312 1109.74,-114.978 1089.94,-103.033"/>
</g>
<!-- 10 -->
<g id="node23" class="node"><title>10</title>
<ellipse fill="none" stroke="black" cx="2312" cy="-810" rx="27.0966" ry="18"/>
<text text-anchor="middle" x="2312" y="-806.3" font-family="Times,serif" font-size="14.00">[1|2]</text>
</g>
<!-- 10&#45;&#45;24 -->
<g id="edge145" class="edge"><title>10&#45;&#45;24</title>
<path fill="none" stroke="black" d="M2339.3,-808.164C2424.54,-805.183 2684.54,-793.187 2759,-756 2807.93,-731.56 2844,-721.697 2844,-667 2844,-667 2844,-667 2844,-233 2844,-109.179 2701.24,-169.134 2580,-144 2350.89,-96.5048 2066.67,-91.3405 1976.7,-90.9568"/>
</g>
<!-- 10&#45;&#45;26 -->
<g id="edge18" class="edge"><title>10&#45;&#45;26</title>
<path fill="none" stroke="black" d="M2284.62,-808.735C2108.49,-806.917 1138.28,-795.172 1013,-756 898.968,-720.346 870.618,-696.346 786,-612 759.106,-585.192 750.65,-576.449 740,-540 732.829,-515.457 739.771,-485.834 745.686,-467.712"/>
</g>
<!-- 10&#45;&#45;20 -->
<g id="edge5" class="edge"><title>10&#45;&#45;20</title>
<path fill="none" stroke="black" d="M2339.67,-808.982C2398.57,-808.024 2539.69,-800.809 2647,-756 2708.6,-730.277 2768,-733.758 2768,-667 2768,-667 2768,-667 2768,-593 2768,-485.999 2680.92,-486.779 2589,-432 2548.06,-407.603 2532.28,-413.623 2488,-396 2377.44,-351.994 2356.06,-325.111 2243,-288 2168.59,-263.577 2077.44,-246.775 2032.6,-239.333"/>
</g>
<!-- 10&#45;&#45;23 -->
<g id="edge152" class="edge"><title>10&#45;&#45;23</title>
<path fill="none" stroke="black" d="M2329.81,-796.275C2342.87,-786.339 2360.43,-771.634 2373,-756 2431.32,-683.477 2476.68,-580.334 2493.22,-540.047"/>
</g>
<!-- 10&#45;&#45;0 -->
<g id="edge119" class="edge"><title>10&#45;&#45;0</title>
<path fill="none" stroke="black" d="M2284.66,-808.859C2101.06,-807.798 1050.62,-799.83 916,-756 721.877,-692.799 533.597,-520.628 478.267,-467.101"/>
</g>
<!-- 10&#45;&#45;2 -->
<g id="edge38" class="edge"><title>10&#45;&#45;2</title>
<path fill="none" stroke="black" d="M2284.47,-808.823C2093.56,-807.491 970.276,-797.908 825,-756 608.602,-693.575 388.756,-520.119 324.611,-466.798"/>
</g>
<!-- 10&#45;&#45;4 -->
<g id="edge1" class="edge"><title>10&#45;&#45;4</title>
<path fill="none" stroke="black" d="M2284.69,-807.616C2149.93,-800.442 1555.76,-764.663 1392,-684 1325.35,-651.172 1275.24,-573.171 1255.81,-539.237"/>
</g>
<!-- 10&#45;&#45;7 -->
<g id="edge26" class="edge"><title>10&#45;&#45;7</title>
<path fill="none" stroke="black" d="M2284.42,-808.807C2023.57,-806.805 0,-787.392 0,-667 0,-667 0,-667 0,-233 0,-124.781 871.22,-96.2436 1041.38,-91.702"/>
</g>
<!-- 10&#45;&#45;38 -->
<g id="edge142" class="edge"><title>10&#45;&#45;38</title>
<path fill="none" stroke="black" d="M2284.55,-808.804C2086.61,-807.298 880.829,-796.503 724,-756 585.296,-720.178 263.092,-497.475 247,-468 239.333,-453.957 236.677,-444.224 247,-432 283.201,-389.13 460.245,-380.93 530.344,-379.366"/>
</g>
<!-- 10&#45;&#45;15 -->
<g id="edge12" class="edge"><title>10&#45;&#45;15</title>
<path fill="none" stroke="black" d="M2284.61,-808.776C2104.27,-807.186 1092.9,-796.483 1043,-756 999.322,-720.564 998.396,-645.698 1000.43,-612.031"/>
</g>
<!-- 17 -->
<g id="node28" class="node"><title>17</title>
<ellipse fill="none" stroke="black" cx="1818" cy="-738" rx="27.0966" ry="18"/>
<text text-anchor="middle" x="1818" y="-734.3" font-family="Times,serif" font-size="14.00">[1|6]</text>
</g>
<!-- 10&#45;&#45;17 -->
<g id="edge2" class="edge"><title>10&#45;&#45;17</title>
<path fill="none" stroke="black" d="M2285.44,-805.236C2199.57,-793.068 1930.02,-754.874 1844.39,-742.74"/>
</g>
<!-- 16 -->
<g id="node29" class="node"><title>16</title>
<ellipse fill="none" stroke="black" cx="2289" cy="-450" rx="28.6953" ry="18"/>
<text text-anchor="middle" x="2289" y="-446.3" font-family="Times,serif" font-size="14.00">⟨3|5⟩</text>
</g>
<!-- 10&#45;&#45;16 -->
<g id="edge158" class="edge"><title>10&#45;&#45;16</title>
<path fill="none" stroke="black" d="M2339.25,-808.701C2413.86,-806.307 2616,-788.6 2616,-667 2616,-667 2616,-667 2616,-593 2616,-549.813 2610.85,-530.815 2577,-504 2566.74,-495.872 2386.51,-466.506 2316.49,-455.345"/>
</g>
<!-- 18 -->
<g id="node31" class="node"><title>18</title>
<ellipse fill="none" stroke="black" cx="1678" cy="-522" rx="31.6951" ry="18"/>
<text text-anchor="middle" x="1678" y="-518.3" font-family="Times,serif" font-size="14.00">s_345</text>
</g>
<!-- 10&#45;&#45;18 -->
<g id="edge17" class="edge"><title>10&#45;&#45;18</title>
<path fill="none" stroke="black" d="M2290.17,-799.167C2226.31,-770.398 2034.29,-683.887 1875,-612 1812.74,-583.904 1739.44,-550.773 1702.26,-533.968"/>
</g>
<!-- 10&#45;&#45;31 -->
<g id="edge101" class="edge"><title>10&#45;&#45;31</title>
<path fill="none" stroke="black" d="M2326.6,-794.623C2335.77,-784.67 2346.97,-770.626 2353,-756 2384.24,-680.253 2384.3,-579.815 2382.88,-540.154"/>
</g>
<!-- 37 -->
<g id="node34" class="node"><title>37</title>
<ellipse fill="none" stroke="black" cx="2462" cy="-450" rx="50.0912" ry="18"/>
<text text-anchor="middle" x="2462" y="-446.3" font-family="Times,serif" font-size="14.00">⟨1|(3+4)|2]</text>
</g>
<!-- 10&#45;&#45;37 -->
<g id="edge34" class="edge"><title>10&#45;&#45;37</title>
<path fill="none" stroke="black" d="M2339.54,-808.917C2392.35,-807.704 2510.33,-799.845 2597,-756 2648.63,-729.884 2692,-724.856 2692,-667 2692,-667 2692,-667 2692,-593 2692,-506.888 2573.83,-471.266 2506.89,-457.996"/>
</g>
<!-- 10&#45;&#45;36 -->
<g id="edge67" class="edge"><title>10&#45;&#45;36</title>
<path fill="none" stroke="black" d="M2339.09,-807.472C2417.26,-802.737 2641.88,-786.74 2708,-756 2761.35,-731.196 2806,-725.836 2806,-667 2806,-667 2806,-667 2806,-521 2806,-372.886 2298.73,-215.573 2154.08,-173.725"/>
</g>
<!-- 10&#45;&#45;34 -->
<g id="edge77" class="edge"><title>10&#45;&#45;34</title>
<path fill="none" stroke="black" d="M2320.39,-792.433C2335.38,-760.247 2361.97,-688.853 2326,-648 2300.26,-618.766 2026.3,-601.312 1938.15,-596.422"/>
</g>
<!-- 15&#45;&#45;26 -->
<g id="edge76" class="edge"><title>15&#45;&#45;26</title>
<path fill="none" stroke="black" d="M975.253,-590.156C921.782,-583.94 804.385,-567.462 776,-540 756.562,-521.194 752.329,-488.431 751.697,-468.335"/>
</g>
<!-- 15&#45;&#45;29 -->
<g id="edge29" class="edge"><title>15&#45;&#45;29</title>
<path fill="none" stroke="black" d="M1029.06,-590.49C1090.99,-584.339 1240.91,-567.017 1283,-540 1310.24,-522.514 1329.2,-488.678 1338.79,-468.137"/>
</g>
<!-- 15&#45;&#45;0 -->
<g id="edge165" class="edge"><title>15&#45;&#45;0</title>
<path fill="none" stroke="black" d="M974.692,-593.46C908.321,-593.724 734.144,-589.262 600,-540 553.168,-522.802 505.877,-487.527 480.639,-466.926"/>
</g>
<!-- 15&#45;&#45;2 -->
<g id="edge163" class="edge"><title>15&#45;&#45;2</title>
<path fill="none" stroke="black" d="M974.617,-592.483C901.273,-590.555 694.712,-581.548 529,-540 456.22,-521.752 375.539,-485.165 334.049,-465.05"/>
</g>
<!-- 15&#45;&#45;5 -->
<g id="edge129" class="edge"><title>15&#45;&#45;5</title>
<path fill="none" stroke="black" d="M974.609,-593.96C925.677,-594.309 822.011,-588.706 754,-540 723.697,-518.298 720.913,-503.93 711,-468 696.04,-413.775 706.592,-317.514 734,-288 760.446,-259.522 876.009,-243.723 930.007,-237.776"/>
</g>
<!-- 15&#45;&#45;4 -->
<g id="edge135" class="edge"><title>15&#45;&#45;4</title>
<path fill="none" stroke="black" d="M1023.92,-583.254C1030.03,-580.717 1036.72,-578.107 1043,-576 1105.97,-554.88 1182.19,-537.066 1221.22,-528.487"/>
</g>
<!-- 15&#45;&#45;8 -->
<g id="edge30" class="edge"><title>15&#45;&#45;8</title>
<path fill="none" stroke="black" d="M1023.59,-582.736C1043.41,-572.906 1073.22,-557.079 1097,-540 1155.01,-498.331 1150.77,-461.097 1216,-432 1359.22,-368.114 1411.53,-416.54 1567,-396 1593.55,-392.493 1623.71,-387.505 1644.87,-383.838"/>
</g>
<!-- 15&#45;&#45;38 -->
<g id="edge103" class="edge"><title>15&#45;&#45;38</title>
<path fill="none" stroke="black" d="M975.091,-590.719C906.83,-584.605 728.624,-566.495 676,-540 615.203,-509.389 578.691,-430.55 565.091,-395.835"/>
</g>
<!-- 15&#45;&#45;13 -->
<g id="edge162" class="edge"><title>15&#45;&#45;13</title>
<path fill="none" stroke="black" d="M974.767,-591.837C898.909,-588.182 686.91,-575.014 628,-540 527.415,-480.216 378.889,-119.161 345.726,-36.0508"/>
</g>
<!-- 15&#45;&#45;12 -->
<g id="edge128" class="edge"><title>15&#45;&#45;12</title>
<path fill="none" stroke="black" d="M1029.24,-591.762C1084.67,-588.52 1213.9,-577.259 1315,-540 1364.48,-521.766 1415.94,-486.872 1443.55,-466.615"/>
</g>
<!-- 15&#45;&#45;14 -->
<g id="edge4" class="edge"><title>15&#45;&#45;14</title>
<path fill="none" stroke="black" d="M991.358,-577.352C980.239,-558.877 966.076,-527.673 979,-504 1007.36,-452.06 1035.74,-453.179 1091,-432 1195.99,-391.76 1331.33,-382.071 1389.43,-379.739"/>
</g>
<!-- 15&#45;&#45;16 -->
<g id="edge14" class="edge"><title>15&#45;&#45;16</title>
<path fill="none" stroke="black" d="M1029.37,-592.212C1190.41,-587.501 2009.13,-562.508 2057,-540 2076.64,-530.764 2071.25,-514.932 2090,-504 2151.47,-468.162 2178.06,-489.14 2246,-468 2252.59,-465.949 2259.61,-463.357 2266.02,-460.82"/>
</g>
<!-- 15&#45;&#45;18 -->
<g id="edge57" class="edge"><title>15&#45;&#45;18</title>
<path fill="none" stroke="black" d="M1028.92,-590.213C1136.11,-579.113 1532.3,-538.088 1646.81,-526.229"/>
</g>
<!-- 32 -->
<g id="node39" class="node"><title>32</title>
<ellipse fill="none" stroke="black" cx="1038" cy="-522" rx="50.0912" ry="18"/>
<text text-anchor="middle" x="1038" y="-518.3" font-family="Times,serif" font-size="14.00">⟨1|(2+3)|6]</text>
</g>
<!-- 15&#45;&#45;32 -->
<g id="edge11" class="edge"><title>15&#45;&#45;32</title>
<path fill="none" stroke="black" d="M1010.35,-576.765C1016,-565.779 1023.45,-551.292 1029.19,-540.124"/>
</g>
<!-- 14&#45;&#45;24 -->
<g id="edge111" class="edge"><title>14&#45;&#45;24</title>
<path fill="none" stroke="black" d="M1444.93,-371.736C1474.5,-364.866 1522.13,-350.47 1555,-324 1629.7,-263.855 1594.25,-197.265 1674,-144 1714.19,-117.157 1858.14,-99.9642 1919.72,-93.6827"/>
</g>
<!-- 14&#45;&#45;20 -->
<g id="edge108" class="edge"><title>14&#45;&#45;20</title>
<path fill="none" stroke="black" d="M1444.36,-370.623C1541.85,-347.039 1881.34,-264.914 1978.71,-241.36"/>
</g>
<!-- 14&#45;&#45;28 -->
<g id="edge112" class="edge"><title>14&#45;&#45;28</title>
<path fill="none" stroke="black" d="M1445.59,-373.137C1527.59,-361.658 1770.36,-327.669 1872.21,-313.41"/>
</g>
<!-- 14&#45;&#45;3 -->
<g id="edge157" class="edge"><title>14&#45;&#45;3</title>
<path fill="none" stroke="black" d="M1418,-359.951C1418,-333.292 1418,-280.115 1418,-235 1418,-235 1418,-235 1418,-161 1418,-106.961 1466.49,-58.3519 1494.9,-34.508"/>
</g>
<!-- 14&#45;&#45;5 -->
<g id="edge113" class="edge"><title>14&#45;&#45;5</title>
<path fill="none" stroke="black" d="M1390.28,-372.721C1344.27,-365.245 1249.55,-348.26 1172,-324 1099.8,-301.416 1018.23,-264.004 979.994,-245.722"/>
</g>
<!-- 14&#45;&#45;7 -->
<g id="edge61" class="edge"><title>14&#45;&#45;7</title>
<path fill="none" stroke="black" d="M1390.06,-374.096C1358.67,-369.288 1308.5,-356.684 1281,-324 1228.47,-261.576 1299.83,-204.409 1245,-144 1207.13,-102.278 1137.64,-92.9331 1098.59,-91.1251"/>
</g>
<!-- 14&#45;&#45;6 -->
<g id="edge21" class="edge"><title>14&#45;&#45;6</title>
<path fill="none" stroke="black" d="M1402.22,-362.834C1389.31,-351.249 1371.06,-334.875 1357.67,-322.854"/>
</g>
<!-- 14&#45;&#45;9 -->
<g id="edge82" class="edge"><title>14&#45;&#45;9</title>
<path fill="none" stroke="black" d="M1433.78,-362.834C1446.69,-351.249 1464.94,-334.875 1478.33,-322.854"/>
</g>
<!-- 14&#45;&#45;11 -->
<g id="edge94" class="edge"><title>14&#45;&#45;11</title>
<path fill="none" stroke="black" d="M1389.57,-375.548C1352.43,-372.171 1287.49,-360.985 1248,-324 1205.7,-284.379 1191.92,-212.671 1187.72,-180.019"/>
</g>
<!-- 17&#45;&#45;27 -->
<g id="edge98" class="edge"><title>17&#45;&#45;27</title>
<path fill="none" stroke="black" d="M1791.81,-732.298C1720.76,-719.546 1524.99,-684.409 1454.08,-671.681"/>
</g>
<!-- 17&#45;&#45;20 -->
<g id="edge161" class="edge"><title>17&#45;&#45;20</title>
<path fill="none" stroke="black" d="M1845.37,-735.685C1944.38,-730.738 2283.5,-712.085 2388,-684 2496.23,-654.911 2561.01,-646.792 2595,-540 2610.39,-491.651 2597.8,-463.465 2558,-432 2505.57,-390.554 2471.6,-426.231 2412,-396 2389.77,-384.726 2390.63,-372.378 2369,-360 2286.27,-312.666 2257.19,-318.821 2167,-288 2118.7,-271.493 2061.93,-253.168 2030.04,-242.969"/>
</g>
<!-- 17&#45;&#45;21 -->
<g id="edge87" class="edge"><title>17&#45;&#45;21</title>
<path fill="none" stroke="black" d="M1834.44,-723.474C1846.94,-713.007 1864.42,-697.986 1879,-684 1910.76,-653.529 1924.08,-649.58 1947,-612 1973.49,-568.555 1951,-541.856 1985,-504 1997.02,-490.615 2041.31,-471.889 2070.18,-460.652"/>
</g>
<!-- 17&#45;&#45;23 -->
<g id="edge89" class="edge"><title>17&#45;&#45;23</title>
<path fill="none" stroke="black" d="M1845.4,-736.238C1911.25,-733.798 2083.12,-723.802 2220,-684 2292.94,-662.792 2309.34,-650.189 2375,-612 2414.15,-589.231 2456.43,-557.455 2480.41,-538.675"/>
</g>
<!-- 17&#45;&#45;1 -->
<g id="edge102" class="edge"><title>17&#45;&#45;1</title>
<path fill="none" stroke="black" d="M1790.61,-737.095C1630.58,-737.458 815.119,-736.659 571,-684 425.251,-652.561 366.947,-651.538 268,-540 193.665,-456.206 197.063,-371.256 272,-288 307.206,-248.886 318.76,-239.19 366,-216 415.98,-191.465 478.756,-177.211 520.51,-169.783"/>
</g>
<!-- 17&#45;&#45;0 -->
<g id="edge62" class="edge"><title>17&#45;&#45;0</title>
<path fill="none" stroke="black" d="M1790.48,-736.965C1690.98,-736.443 1340.83,-731.148 1057,-684 934.062,-663.579 906.226,-644.81 786,-612 671.565,-580.77 626.946,-606.912 529,-540 501.852,-521.454 481.214,-488.292 470.412,-468.105"/>
</g>
<!-- 17&#45;&#45;2 -->
<g id="edge107" class="edge"><title>17&#45;&#45;2</title>
<path fill="none" stroke="black" d="M1790.48,-737.092C1678.97,-737.109 1250.1,-733.747 902,-684 760.691,-663.806 724.077,-658.154 589,-612 516.74,-587.309 499.199,-578.064 433,-540 393.321,-517.185 350.337,-485.424 325.934,-466.659"/>
</g>
<!-- 17&#45;&#45;5 -->
<g id="edge140" class="edge"><title>17&#45;&#45;5</title>
<path fill="none" stroke="black" d="M1790.63,-736.77C1640.84,-735.35 919.215,-726.381 701,-684 605.792,-665.509 583.111,-652.533 495,-612 379.209,-558.734 310.592,-578.458 247,-468 173.441,-340.229 789.372,-255.851 929.863,-238.374"/>
</g>
<!-- 17&#45;&#45;7 -->
<g id="edge92" class="edge"><title>17&#45;&#45;7</title>
<path fill="none" stroke="black" d="M1790.54,-736.814C1606.12,-735.45 550.994,-725.855 415,-684 318.074,-654.169 289.69,-627.25 238,-540 163.095,-413.565 182.413,-298.541 304,-216 383.203,-162.232 413.523,-164.643 507,-144 708.078,-99.5943 957.603,-92.3755 1041.2,-91.2165"/>
</g>
<!-- 17&#45;&#45;15 -->
<g id="edge143" class="edge"><title>17&#45;&#45;15</title>
<path fill="none" stroke="black" d="M1790.59,-736.981C1677.23,-736.587 1245.14,-731.913 1119,-684 1076.29,-667.779 1036.11,-630.729 1015.8,-609.909"/>
</g>
<!-- 17&#45;&#45;16 -->
<g id="edge54" class="edge"><title>17&#45;&#45;16</title>
<path fill="none" stroke="black" d="M1845.51,-737.264C1918.2,-737.24 2120.7,-732.467 2280,-684 2313.38,-673.846 2540.85,-569.792 2559,-540 2567.32,-526.336 2569.17,-516.355 2559,-504 2551.24,-494.57 2383.58,-466.385 2316.44,-455.427"/>
</g>
<!-- 17&#45;&#45;18 -->
<g id="edge69" class="edge"><title>17&#45;&#45;18</title>
<path fill="none" stroke="black" d="M1807.71,-721.264C1781.88,-681.785 1714.55,-578.863 1688.5,-539.05"/>
</g>
<!-- 17&#45;&#45;31 -->
<g id="edge37" class="edge"><title>17&#45;&#45;31</title>
<path fill="none" stroke="black" d="M1845.48,-736.491C1925.31,-733.765 2161.44,-716.769 2317,-612 2344.14,-593.723 2364.02,-560.153 2374.24,-539.875"/>
</g>
<!-- 17&#45;&#45;30 -->
<g id="edge123" class="edge"><title>17&#45;&#45;30</title>
<path fill="none" stroke="black" d="M1845.29,-737.431C1923.37,-737.982 2153.8,-734.851 2336,-684 2372,-673.953 2378.18,-663.915 2412,-648 2491.3,-610.68 2539.47,-619.203 2577,-540 2600.15,-491.139 2566.38,-461.403 2521,-432 2464.55,-395.422 2438.09,-416.412 2374,-396 2367.42,-393.905 2360.41,-391.299 2354,-388.762"/>
</g>
<!-- 17&#45;&#45;34 -->
<g id="edge33" class="edge"><title>17&#45;&#45;34</title>
<path fill="none" stroke="black" d="M1828.31,-721.261C1846.18,-693.966 1882.74,-638.154 1900.65,-610.81"/>
</g>
<!-- 17&#45;&#45;32 -->
<g id="edge149" class="edge"><title>17&#45;&#45;32</title>
<path fill="none" stroke="black" d="M1790.85,-735.067C1723.05,-729.926 1541.01,-714.205 1392,-684 1277,-660.689 1240.87,-668.433 1138,-612 1103.16,-592.886 1070.24,-559.597 1052.23,-539.598"/>
</g>
<!-- 19 -->
<g id="node30" class="node"><title>19</title>
<ellipse fill="none" stroke="black" cx="1618" cy="-594" rx="27.0966" ry="18"/>
<text text-anchor="middle" x="1618" y="-590.3" font-family="Times,serif" font-size="14.00">[2|6]</text>
</g>
<!-- 19&#45;&#45;20 -->
<g id="edge50" class="edge"><title>19&#45;&#45;20</title>
<path fill="none" stroke="black" d="M1638.54,-581.798C1642.33,-579.816 1646.26,-577.81 1650,-576 1733.01,-535.797 1958.61,-461.049 2024,-396 2060.4,-359.791 2086.11,-334.804 2065,-288 2056.94,-270.135 2039.56,-255.872 2025.57,-246.662"/>
</g>
<!-- 19&#45;&#45;7 -->
<g id="edge80" class="edge"><title>19&#45;&#45;7</title>
<path fill="none" stroke="black" d="M1590.66,-593.083C1509.06,-592.786 1269.27,-587.778 1211,-540 1072,-426.03 1067.77,-176.348 1069.33,-108.379"/>
</g>
<!-- 19&#45;&#45;8 -->
<g id="edge147" class="edge"><title>19&#45;&#45;8</title>
<path fill="none" stroke="black" d="M1619,-575.701C1620.67,-557.078 1625.12,-527.029 1637,-504 1646.95,-484.709 1661.9,-488.139 1670,-468 1679.45,-444.482 1677.62,-414.571 1675.07,-396.11"/>
</g>
<!-- 19&#45;&#45;14 -->
<g id="edge65" class="edge"><title>19&#45;&#45;14</title>
<path fill="none" stroke="black" d="M1611.88,-576.326C1599.5,-544.581 1568.72,-474.814 1523,-432 1499.75,-410.226 1465.84,-395.308 1442.9,-386.976"/>
</g>
<!-- 19&#45;&#45;18 -->
<g id="edge27" class="edge"><title>19&#45;&#45;18</title>
<path fill="none" stroke="black" d="M1631.02,-577.811C1640.95,-566.231 1654.57,-550.336 1664.59,-538.644"/>
</g>
<!-- 18&#45;&#45;20 -->
<g id="edge104" class="edge"><title>18&#45;&#45;20</title>
<path fill="none" stroke="black" d="M1703.7,-511.227C1710.29,-508.797 1717.39,-506.246 1724,-504 1775.11,-486.638 1791.47,-491.637 1840,-468 1941.08,-418.767 1995.82,-423.594 2048,-324 2055.43,-309.828 2053.35,-303.08 2048,-288 2042.61,-272.812 2030.81,-258.804 2020.94,-249.007"/>
</g>
<!-- 18&#45;&#45;7 -->
<g id="edge141" class="edge"><title>18&#45;&#45;7</title>
<path fill="none" stroke="black" d="M1656.68,-508.321C1617.51,-485.098 1536.85,-437.593 1523,-432 1389.67,-378.137 1326.91,-417.906 1218,-324 1143.78,-260.004 1093.7,-149.568 1076.55,-107.725"/>
</g>
<!-- 18&#45;&#45;8 -->
<g id="edge10" class="edge"><title>18&#45;&#45;8</title>
<path fill="none" stroke="black" d="M1704.27,-511.282C1710.72,-508.898 1717.61,-506.355 1724,-504 1767.54,-487.957 1795.44,-506.049 1822,-468 1831.16,-454.88 1831.24,-445.063 1822,-432 1794.49,-393.102 1735.95,-382.561 1700.68,-379.823"/>
</g>
<!-- 18&#45;&#45;14 -->
<g id="edge55" class="edge"><title>18&#45;&#45;14</title>
<path fill="none" stroke="black" d="M1666.85,-504.745C1652.32,-484.781 1625.09,-451.207 1594,-432 1546.63,-402.733 1482.06,-388.74 1445.75,-382.796"/>
</g>
<!-- 18&#45;&#45;16 -->
<g id="edge49" class="edge"><title>18&#45;&#45;16</title>
<path fill="none" stroke="black" d="M1709.14,-517.432C1815.05,-505.299 2160.31,-465.743 2261.13,-454.193"/>
</g>
<!-- 37&#45;&#45;24 -->
<g id="edge160" class="edge"><title>37&#45;&#45;24</title>
<path fill="none" stroke="black" d="M2463.97,-431.877C2468.94,-379.582 2476.02,-220.846 2390,-144 2382.21,-137.041 2072.19,-104.02 1976.1,-93.9333"/>
</g>
<!-- 37&#45;&#45;14 -->
<g id="edge155" class="edge"><title>37&#45;&#45;14</title>
<path fill="none" stroke="black" d="M2416.47,-442.422C2390.34,-438.859 2356.88,-434.654 2327,-432 2019.79,-404.715 1941.76,-416.101 1634,-396 1566.62,-391.599 1487.54,-385.012 1446.29,-381.468"/>
</g>
<!-- 36&#45;&#45;24 -->
<g id="edge138" class="edge"><title>36&#45;&#45;24</title>
<path fill="none" stroke="black" d="M2084.4,-147.834C2051.42,-134.091 2000.49,-112.871 1971.09,-100.621"/>
</g>
<!-- 35 -->
<g id="node36" class="node"><title>35</title>
<ellipse fill="none" stroke="black" cx="2021" cy="-522" rx="27.0966" ry="18"/>
<text text-anchor="middle" x="2021" y="-518.3" font-family="Times,serif" font-size="14.00">[2|4]</text>
</g>
<!-- 35&#45;&#45;24 -->
<g id="edge59" class="edge"><title>35&#45;&#45;24</title>
<path fill="none" stroke="black" d="M2041.03,-509.599C2044.93,-507.594 2049.05,-505.631 2053,-504 2104.08,-482.939 2134.24,-508.345 2172,-468 2250.02,-384.629 2238.15,-329.036 2222,-216 2217.29,-183.002 2225.46,-166.642 2201,-144 2168.48,-113.898 2035.55,-98.6974 1976.5,-93.3223"/>
</g>
<!-- 35&#45;&#45;20 -->
<g id="edge43" class="edge"><title>35&#45;&#45;20</title>
<path fill="none" stroke="black" d="M2041.09,-509.744C2044.99,-507.726 2049.08,-505.72 2053,-504 2097.02,-484.669 2127.23,-507.245 2155,-468 2164.24,-454.939 2155.61,-447.988 2155,-432 2152.55,-367.86 2182.4,-339.431 2144,-288 2117.89,-253.027 2065.67,-241.131 2033.2,-237.085"/>
</g>
<!-- 35&#45;&#45;21 -->
<g id="edge120" class="edge"><title>35&#45;&#45;21</title>
<path fill="none" stroke="black" d="M2036.18,-506.834C2048.93,-494.929 2067.11,-477.968 2080.07,-465.869"/>
</g>
<!-- 35&#45;&#45;5 -->
<g id="edge16" class="edge"><title>35&#45;&#45;5</title>
<path fill="none" stroke="black" d="M1995.19,-515.655C1921.69,-500.591 1704.82,-457.248 1523,-432 1362.85,-409.761 1316.51,-440.26 1161,-396 1091.03,-376.085 1068.1,-372.639 1014,-324 991.058,-303.373 974.001,-271.193 965.058,-251.703"/>
</g>
<!-- 35&#45;&#45;8 -->
<g id="edge106" class="edge"><title>35&#45;&#45;8</title>
<path fill="none" stroke="black" d="M2043.25,-511.568C2076.16,-497.513 2134.26,-472.261 2137,-468 2145.65,-454.539 2147.65,-443.937 2137,-432 2107.82,-399.303 1797.55,-384.074 1700.71,-380.094"/>
</g>
<!-- 34&#45;&#45;24 -->
<g id="edge93" class="edge"><title>34&#45;&#45;24</title>
<path fill="none" stroke="black" d="M1938.05,-590.043C1992.59,-583.725 2119.38,-567.223 2223,-540 2268.69,-527.997 2277.38,-516.267 2323,-504 2409.37,-480.772 2446.7,-517.8 2521,-468 2560.02,-441.846 2578,-425.973 2578,-379 2578,-379 2578,-379 2578,-233 2578,-192.031 2585.41,-170.309 2554,-144 2509.32,-106.572 2091.09,-94.2836 1976.76,-91.609"/>
</g>
<!-- 34&#45;&#45;21 -->
<g id="edge118" class="edge"><title>34&#45;&#45;21</title>
<path fill="none" stroke="black" d="M1914.67,-575.907C1919.77,-556.043 1930.88,-523.504 1952,-504 1986.09,-472.522 2006.46,-484.043 2050,-468 2056.39,-465.645 2063.28,-463.102 2069.73,-460.718"/>
</g>
<!-- 34&#45;&#45;23 -->
<g id="edge105" class="edge"><title>34&#45;&#45;23</title>
<path fill="none" stroke="black" d="M1938.28,-592.013C2016.94,-588.793 2250.76,-576.607 2441,-540 2448.43,-538.57 2456.28,-536.625 2463.74,-534.562"/>
</g>
<!-- 34&#45;&#45;28 -->
<g id="edge72" class="edge"><title>34&#45;&#45;28</title>
<path fill="none" stroke="black" d="M1911.42,-575.966C1912.66,-525.218 1916.33,-375.407 1917.58,-324.306"/>
</g>
<!-- 34&#45;&#45;29 -->
<g id="edge22" class="edge"><title>34&#45;&#45;29</title>
<path fill="none" stroke="black" d="M1883.71,-591.313C1823.41,-587.072 1674.67,-573.789 1555,-540 1487.25,-520.872 1412.37,-485.148 1373.24,-465.272"/>
</g>
<!-- 34&#45;&#45;4 -->
<g id="edge151" class="edge"><title>34&#45;&#45;4</title>
<path fill="none" stroke="black" d="M1884.15,-590.169C1777.03,-578.877 1380.88,-537.114 1273.82,-525.828"/>
</g>
<!-- 34&#45;&#45;8 -->
<g id="edge20" class="edge"><title>34&#45;&#45;8</title>
<path fill="none" stroke="black" d="M1888.61,-583.687C1871.28,-575.138 1848.53,-560.651 1838,-540 1816.2,-497.228 1868.38,-470.718 1840,-432 1807.9,-388.219 1739.55,-379.67 1700.65,-378.544"/>
</g>
<!-- 34&#45;&#45;12 -->
<g id="edge28" class="edge"><title>34&#45;&#45;12</title>
<path fill="none" stroke="black" d="M1883.89,-590.337C1833.93,-584.869 1724.45,-570.259 1637,-540 1580.82,-520.562 1520.12,-485.785 1487.67,-465.947"/>
</g>
<!-- 34&#45;&#45;14 -->
<g id="edge88" class="edge"><title>34&#45;&#45;14</title>
<path fill="none" stroke="black" d="M1891.5,-580.935C1837.03,-547.382 1683.66,-453.985 1629,-432 1565.58,-406.488 1486.36,-390.557 1445.39,-383.413"/>
</g>
<!-- 34&#45;&#45;16 -->
<g id="edge97" class="edge"><title>34&#45;&#45;16</title>
<path fill="none" stroke="black" d="M1936.97,-588.333C1972.8,-581.234 2038.74,-565.759 2090,-540 2113.83,-528.026 2114.38,-516.376 2138,-504 2182.82,-480.518 2198.46,-485.308 2246,-468 2252.34,-465.693 2259.14,-463.07 2265.43,-460.586"/>
</g>
<!-- 34&#45;&#45;18 -->
<g id="edge44" class="edge"><title>34&#45;&#45;18</title>
<path fill="none" stroke="black" d="M1888.64,-583.14C1882.64,-580.659 1876.12,-578.105 1870,-576 1813.1,-556.435 1744.85,-538.981 1706.96,-529.808"/>
</g>
<!-- 34&#45;&#45;31 -->
<g id="edge73" class="edge"><title>34&#45;&#45;31</title>
<path fill="none" stroke="black" d="M1937.86,-590.722C2003.31,-584.906 2176.08,-567.966 2318,-540 2326.57,-538.311 2335.7,-536.126 2344.29,-533.889"/>
</g>
<!-- 34&#45;&#45;30 -->
<g id="edge132" class="edge"><title>34&#45;&#45;30</title>
<path fill="none" stroke="black" d="M1937.97,-590.884C1980.65,-586.587 2065.34,-574.145 2128,-540 2148.43,-528.868 2145.46,-514.932 2166,-504 2230.72,-469.546 2279.88,-524.181 2327,-468 2343.8,-447.972 2340.16,-415.6 2335.75,-395.911"/>
</g>
<!-- 34&#45;&#45;37 -->
<g id="edge90" class="edge"><title>34&#45;&#45;37</title>
<path fill="none" stroke="black" d="M1937.48,-589.21C1984.28,-582.137 2084.37,-565.311 2166,-540 2205.58,-527.728 2212.69,-517.106 2252,-504 2309.07,-484.97 2376.84,-469.025 2419.63,-459.741"/>
</g>
<!-- 33 -->
<g id="node38" class="node"><title>33</title>
<ellipse fill="none" stroke="black" cx="812" cy="-522" rx="27.0966" ry="18"/>
<text text-anchor="middle" x="812" y="-518.3" font-family="Times,serif" font-size="14.00">[4|6]</text>
</g>
<!-- 33&#45;&#45;24 -->
<g id="edge154" class="edge"><title>33&#45;&#45;24</title>
<path fill="none" stroke="black" d="M836.593,-514.097C871.047,-504.332 935.572,-485.696 990,-468 1035.72,-453.136 1045.07,-442.441 1092,-432 1250.69,-396.692 1300.8,-444.381 1456,-396 1519.05,-376.344 1534.5,-365.352 1586,-324 1669.23,-257.17 1654.07,-199.913 1745,-144 1800.85,-109.657 1878.52,-97.4062 1919.72,-93.1594"/>
</g>
<!-- 33&#45;&#45;26 -->
<g id="edge58" class="edge"><title>33&#45;&#45;26</title>
<path fill="none" stroke="black" d="M798.981,-505.811C789.055,-494.231 775.43,-478.336 765.409,-466.644"/>
</g>
<!-- 33&#45;&#45;5 -->
<g id="edge36" class="edge"><title>33&#45;&#45;5</title>
<path fill="none" stroke="black" d="M814.139,-503.941C819.943,-463.189 839.05,-358.34 889,-288 901.594,-270.265 921.852,-255.713 937.167,-246.374"/>
</g>
<!-- 33&#45;&#45;7 -->
<g id="edge133" class="edge"><title>33&#45;&#45;7</title>
<path fill="none" stroke="black" d="M786.545,-514.652C763.083,-507.415 729.224,-493.188 711,-468 644.786,-376.486 640.883,-322.684 678,-216 691.411,-177.452 699.766,-164.599 735,-144 787.104,-113.539 970.579,-97.8768 1041.61,-92.8455"/>
</g>
<!-- 33&#45;&#45;14 -->
<g id="edge116" class="edge"><title>33&#45;&#45;14</title>
<path fill="none" stroke="black" d="M832.919,-510.135C870.5,-491.114 952.396,-451.916 1026,-432 1158.91,-396.036 1324.09,-383.895 1389.46,-380.322"/>
</g>
<!-- 32&#45;&#45;5 -->
<g id="edge9" class="edge"><title>32&#45;&#45;5</title>
<path fill="none" stroke="black" d="M992.413,-514.306C964.318,-507.612 930.278,-494.312 912,-468 866.333,-402.261 875.721,-362.096 906,-288 912.729,-271.533 927.314,-257.418 939.33,-247.905"/>
</g>
<!-- 32&#45;&#45;8 -->
<g id="edge64" class="edge"><title>32&#45;&#45;8</title>
<path fill="none" stroke="black" d="M1054.09,-504.696C1077.54,-481.352 1120.42,-440.298 1140,-432 1227.68,-394.849 1472.49,-407.618 1567,-396 1593.58,-392.733 1623.73,-387.713 1644.89,-383.974"/>
</g>
</g>
</svg>
