<?xml version="1.0" encoding="UTF-8" standalone="no"?>
<!DOCTYPE svg PUBLIC "-//W3C//DTD SVG 1.1//EN"
 "http://www.w3.org/Graphics/SVG/1.1/DTD/svg11.dtd">
<!-- Generated by graphviz version 2.38.0 (20140413.2041)
 -->
<!-- Title: %3 Pages: 1 -->
<svg width="563pt" height="530pt"
 viewBox="0.00 0.00 563.48 529.51" xmlns="http://www.w3.org/2000/svg" xmlns:xlink="http://www.w3.org/1999/xlink">
<g id="graph0" class="graph" transform="scale(1 1) rotate(0) translate(4 525.515)">
<title>%3</title>
<!-- 1 -->
<g id="node1" class="node"><title>1</title>
<ellipse fill="none" stroke="black" cx="528.184" cy="-260.757" rx="27.0966" ry="18"/>
<text text-anchor="middle" x="528.184" y="-257.057" font-family="Times,serif" font-size="14.00">[5|6]</text>
</g>
<!-- 0 -->
<g id="node2" class="node"><title>0</title>
<ellipse fill="none" stroke="black" cx="470.514" cy="-102.309" rx="28.6953" ry="18"/>
<text text-anchor="middle" x="470.514" y="-98.6088" font-family="Times,serif" font-size="14.00">⟨3|4⟩</text>
</g>
<!-- 1&#45;&#45;0 -->
<g id="edge11" class="edge"><title>1&#45;&#45;0</title>
<path fill="none" stroke="black" d="M521.792,-243.195C510.707,-212.738 488.04,-150.461 476.935,-119.95"/>
</g>
<!-- 3 -->
<g id="node3" class="node"><title>3</title>
<ellipse fill="none" stroke="black" cx="470.514" cy="-419.206" rx="50.0912" ry="18"/>
<text text-anchor="middle" x="470.514" y="-415.506" font-family="Times,serif" font-size="14.00">⟨3|(1+2)|4]</text>
</g>
<!-- 1&#45;&#45;3 -->
<g id="edge7" class="edge"><title>1&#45;&#45;3</title>
<path fill="none" stroke="black" d="M521.792,-278.32C510.765,-308.616 488.279,-370.395 477.112,-401.078"/>
</g>
<!-- 6 -->
<g id="node8" class="node"><title>6</title>
<ellipse fill="none" stroke="black" cx="324.487" cy="-503.515" rx="28.6953" ry="18"/>
<text text-anchor="middle" x="324.487" y="-499.815" font-family="Times,serif" font-size="14.00">⟨1|2⟩</text>
</g>
<!-- 1&#45;&#45;6 -->
<g id="edge10" class="edge"><title>1&#45;&#45;6</title>
<path fill="none" stroke="black" d="M514.819,-276.685C477.91,-320.672 374.869,-443.472 337.901,-487.528"/>
</g>
<!-- 7 -->
<g id="node7" class="node"><title>7</title>
<ellipse fill="none" stroke="black" cx="324.487" cy="-18" rx="50.0912" ry="18"/>
<text text-anchor="middle" x="324.487" y="-14.3" font-family="Times,serif" font-size="14.00">⟨5|(1+2)|6]</text>
</g>
<!-- 0&#45;&#45;7 -->
<g id="edge12" class="edge"><title>0&#45;&#45;7</title>
<path fill="none" stroke="black" d="M449.28,-90.0496C423.335,-75.0699 379.417,-49.7138 351.201,-33.4237"/>
</g>
<!-- 2 -->
<g id="node4" class="node"><title>2</title>
<ellipse fill="none" stroke="black" cx="158.431" cy="-47.2801" rx="27.0966" ry="18"/>
<text text-anchor="middle" x="158.431" y="-43.5801" font-family="Times,serif" font-size="14.00">[1|2]</text>
</g>
<!-- 2&#45;&#45;0 -->
<g id="edge6" class="edge"><title>2&#45;&#45;0</title>
<path fill="none" stroke="black" d="M185.039,-51.9718C243.558,-62.2903 382.963,-86.8712 442.634,-97.3928"/>
</g>
<!-- 5 -->
<g id="node5" class="node"><title>5</title>
<ellipse fill="none" stroke="black" cx="50.0456" cy="-176.449" rx="28.6953" ry="18"/>
<text text-anchor="middle" x="50.0456" y="-172.749" font-family="Times,serif" font-size="14.00">⟨5|6⟩</text>
</g>
<!-- 2&#45;&#45;5 -->
<g id="edge2" class="edge"><title>2&#45;&#45;5</title>
<path fill="none" stroke="black" d="M145.141,-63.1187C124.339,-87.9097 84.3132,-135.61 63.4444,-160.481"/>
</g>
<!-- 2&#45;&#45;7 -->
<g id="edge3" class="edge"><title>2&#45;&#45;7</title>
<path fill="none" stroke="black" d="M185.111,-42.5758C210.506,-38.0979 249.218,-31.2719 279.404,-25.9493"/>
</g>
<!-- 4 -->
<g id="node6" class="node"><title>4</title>
<ellipse fill="none" stroke="black" cx="158.431" cy="-474.235" rx="27.0966" ry="18"/>
<text text-anchor="middle" x="158.431" y="-470.535" font-family="Times,serif" font-size="14.00">[3|4]</text>
</g>
<!-- 4&#45;&#45;5 -->
<g id="edge1" class="edge"><title>4&#45;&#45;5</title>
<path fill="none" stroke="black" d="M151.975,-456.499C132.698,-403.535 75.7003,-246.934 56.4671,-194.092"/>
</g>
<!-- 4&#45;&#45;6 -->
<g id="edge4" class="edge"><title>4&#45;&#45;6</title>
<path fill="none" stroke="black" d="M185.111,-478.939C215.732,-484.338 265.714,-493.152 296.766,-498.627"/>
</g>
<!-- 8 -->
<g id="node9" class="node"><title>8</title>
<ellipse fill="none" stroke="black" cx="50.0456" cy="-345.066" rx="50.0912" ry="18"/>
<text text-anchor="middle" x="50.0456" y="-341.366" font-family="Times,serif" font-size="14.00">⟨1|(3+4)|2]</text>
</g>
<!-- 4&#45;&#45;8 -->
<g id="edge5" class="edge"><title>4&#45;&#45;8</title>
<path fill="none" stroke="black" d="M145.141,-458.396C124.791,-434.144 86.0444,-387.968 64.8322,-362.688"/>
</g>
<!-- 6&#45;&#45;3 -->
<g id="edge8" class="edge"><title>6&#45;&#45;3</title>
<path fill="none" stroke="black" d="M345.72,-491.256C371.666,-476.276 415.584,-450.92 443.799,-434.63"/>
</g>
<!-- 8&#45;&#45;5 -->
<g id="edge9" class="edge"><title>8&#45;&#45;5</title>
<path fill="none" stroke="black" d="M50.0456,-327.021C50.0456,-294.652 50.0456,-227.078 50.0456,-194.619"/>
</g>
<!-- Δ_135 -->
<g id="node10" class="node"><title>Δ_135</title>
<ellipse fill="none" stroke="black" cx="327.682" cy="-269.757" rx="33.5952" ry="18"/>
<text text-anchor="middle" x="327.682" y="-266.057" font-family="Times,serif" font-size="14.00">Δ_135</text>
</g>
</g>
</svg>
